<svg xmlns="http://www.w3.org/2000/svg" width="891.381" height="573.886" data-name="Layer 1"><path fill="#e6e6e6" d="m68.723 461.8-6.294-24.823a322.324 322.324 0 0 0-34.197-12.269l-.794 11.536-3.222-12.71C9.804 419.42 0 417.608 0 417.608s13.243 50.36 41.02 88.86l32.365 5.685-25.144 3.625a130.406 130.406 0 0 0 11.247 11.92c40.407 37.506 85.413 54.714 100.523 38.435s-5.396-59.88-45.803-97.387c-12.526-11.627-28.262-20.958-44.014-28.302Z"/><path fill="#e6e6e6" d="m128.579 434.843 7.443-24.503a322.325 322.325 0 0 0-22.932-28.179l-6.643 9.465 3.81-12.546c-10.21-10.972-17.665-17.591-17.665-17.591s-14.694 49.955-10.817 97.27l24.768 21.598-23.399-9.894a130.406 130.406 0 0 0 3.467 16.017c15.204 52.993 44.836 90.988 66.185 84.863s26.333-54.05 11.13-107.043c-4.713-16.429-13.36-32.55-23.049-46.979ZM821.742 487.639l14.11-8.87a209.77 209.77 0 0 0 .746-23.632l-7.302 1.819 7.224-4.541c-.338-9.748-1.18-16.182-1.18-16.182s-28.53 18.288-46.806 43.199l2.963 21.18-7.281-14.843a84.867 84.867 0 0 0-5.128 9.351c-15.13 32.533-16.77 63.848-3.663 69.944s35.997-15.337 51.127-47.87c4.69-10.085 7.316-21.698 8.708-32.922Z"/><path fill="#e6e6e6" d="m850.423 519.302 16.663-.3a209.77 209.77 0 0 0 12.855-19.844l-7.19-2.217 8.53-.153c4.75-8.52 7.355-14.463 7.355-14.463s-33.876.908-62.398 12.787l-8.411 19.662 1.44-16.47a84.868 84.868 0 0 0-9.224 5.355c-29.769 20.029-47.36 45.988-39.29 57.98s38.743 5.48 68.511-14.55c9.228-6.209 17.479-14.793 24.472-23.682Z"/><path fill="#3f3d56" d="M2.029 571.273h888v2.241h-888z"/><path fill="#fff" d="m251.827 60.673 2.3 1.154-6.23 12.418-2.3-1.153z"/><path fill="#3f3d56" d="m240.113 372.681.762-.088.48 4.114-.762.089z"/><path fill="#fff" d="m245.182 408.171.241.728-3.931 1.304-.242-.727zM241.094 387.619l.765-.046.249 4.134-.766.046zM237.515 364.948l.765-.046.249 4.134-.766.046z"/><path fill="#ff6584" d="m292.703 381.1.287.712-3.84 1.551-.288-.71zM246.973 380.403l.741.199-1.072 4-.74-.198z"/><path fill="#3f3d56" d="M286.479 70.608h2.418v13.058h-2.418z"/><path fill="#fff" d="M285.028 102.042h2.418V115.1h-2.418zM285.105 374.435l.51.51-2.752 2.752-.51-.51zM292.342 416.128l.51.51-2.752 2.752-.51-.51z"/><path fill="#ff6584" d="m286.381 399.17.697.187-1.008 3.759-.696-.187zM288.367 384.63l.51.51-2.752 2.751-.51-.51z"/><path fill="#3f3d56" d="M277.806 384.67a3.307 3.307 0 0 0-4.677-4.676L167.613 485.51a3.307 3.307 0 1 0 4.676 4.677l104.838-104.838"/><path fill="#C1FE77" d="M288.591 371.353a49.71 49.71 0 1 0 12.377 49.809 49.733 49.733 0 0 0-12.377-49.809Zm-40.702 54.094a20.575 20.575 0 0 1-9.05-5.281 22.704 22.704 0 0 1-1.429-1.588 20.621 20.621 0 1 1 10.479 6.87Z"/><path fill="#3f3d56" d="M175.926 94.945a11.093 11.093 0 0 0-22.186 0v467.539a11.093 11.093 0 1 0 22.186 0V98.167"/><path fill="#C1FE77" d="M317.428 90.8a166.89 166.89 0 1 0 19.35 78.05 166.805 166.805 0 0 0-19.35-78.05ZM203.92 229.092a69.167 69.167 0 1 1 35.167-60.24 68.827 68.827 0 0 1-35.167 60.24Z"/><path d="M169.444 325.054A166.842 166.842 0 0 1 2.686 163.41q-.086 2.708-.088 5.436a166.847 166.847 0 1 0 333.693 0q0-2.732-.088-5.442a166.842 166.842 0 0 1-166.759 161.649Z" opacity=".2"/><path d="M169.928 85.594a83.251 83.251 0 1 0 83.256 83.257 83.349 83.349 0 0 0-83.256-83.257Zm33.992 143.497a69.167 69.167 0 1 1 35.167-60.24 68.827 68.827 0 0 1-35.167 60.24Z" opacity=".2"/><path fill="#e6e6e6" d="M317.43 88.796v27.755a10.149 10.149 0 0 1-17.478 7.027v3.163a12.056 12.056 0 1 1-24.113 0v-2.636a10.143 10.143 0 0 1-16.926-7.554l-.484-29.5v-6.805a4.11 4.11 0 0 0-8.221 0v6.804l-.484 24.665a10.156 10.156 0 0 1-20.312 0L228.17 87.05V74.443a6.737 6.737 0 0 0-13.474 0V87.05l-.76 24.665a10.148 10.148 0 0 1-18.135 6.267 10.129 10.129 0 0 1-13.85 2.012v6.747a12.056 12.056 0 1 1-24.113 0v-20.83a10.152 10.152 0 0 1-19.413 4.164v16.666a12.056 12.056 0 1 1-24.113 0V87.05h-.067v39.69a12.056 12.056 0 1 1-24.113 0v-16.525a10.15 10.15 0 0 1-19.345-4.305v-18.86h-1.035v33.886a12.056 12.056 0 0 1-24.113 0v-15.026a10.156 10.156 0 1 1-20.312 0V83.554a166.905 166.905 0 0 1 292.103 5.242Z"/><path d="M102.188 132.994a12.056 12.056 0 0 1-12.056-12.057v6.287a12.056 12.056 0 0 0 24.113 0v-6.287a12.056 12.056 0 0 1-12.057 12.057ZM126.369 132.994a12.056 12.056 0 0 1-12.057-12.057v6.287a12.056 12.056 0 0 0 24.113 0v-6.287a12.056 12.056 0 0 1-12.056 12.057ZM90.132 104.412a10.15 10.15 0 0 1-19.345-4.304v6.287a10.15 10.15 0 0 0 19.345 4.304ZM114.245 81.247h.068v6.287h-.068zM45.64 100.108a10.156 10.156 0 0 1-20.312 0v6.287a10.156 10.156 0 0 0 20.311 0ZM69.752 81.247h1.035v6.287h-1.035zM57.696 127.19a12.056 12.056 0 0 1-12.057-12.056v6.287a12.056 12.056 0 1 0 24.113 0v-6.287a12.056 12.056 0 0 1-12.056 12.056ZM169.894 132.994a12.056 12.056 0 0 1-12.056-12.057v6.287a12.056 12.056 0 0 0 24.113 0v-6.287a12.056 12.056 0 0 1-12.057 12.057ZM258.43 74.443a4.11 4.11 0 1 0-8.222 0v6.287a4.11 4.11 0 1 1 8.221 0ZM157.838 100.108a10.152 10.152 0 0 1-19.413 4.164v6.287a10.152 10.152 0 0 0 19.413-4.164ZM239.568 116.067a10.155 10.155 0 0 1-10.156-10.156l-1.242-24.664v6.287l1.242 24.664a10.156 10.156 0 0 0 20.312 0l.484-24.664v-6.287l-.484 24.664a10.155 10.155 0 0 1-10.156 10.156ZM307.274 120.903a10.123 10.123 0 0 1-7.322-3.129v3.163a12.056 12.056 0 0 1-24.113 0v-2.635a10.143 10.143 0 0 1-16.926-7.554l-.484-29.5v6.286l.484 29.5a10.143 10.143 0 0 0 16.926 7.555v2.635a12.056 12.056 0 0 0 24.113 0v-3.163a10.149 10.149 0 0 0 17.478-7.026v-6.287a10.155 10.155 0 0 1-10.156 10.155ZM203.78 116.067a10.131 10.131 0 0 1-7.979-3.888 10.129 10.129 0 0 1-13.85 2.012v6.287a10.129 10.129 0 0 0 13.85-2.012 10.148 10.148 0 0 0 18.136-6.268l.76-24.664v-6.287l-.76 24.664a10.155 10.155 0 0 1-10.156 10.156ZM228.17 68.64a6.737 6.737 0 1 0-13.474 0v6.286a6.737 6.737 0 1 1 13.474 0Z" opacity=".2"/><path fill="#3f3d56" d="M113.103 69.882h2.418V82.94h-2.418zM158.805 62.87h2.418v13.058h-2.418zM100.771 114.133h2.418v13.058h-2.418zM199.97 89.94l1.99 1.376-7.43 10.738-1.989-1.375zM72.413 72.583l1.5-1.896 10.24 8.102-1.5 1.896zM214.595 23.738l1.5-1.896 10.241 8.102-1.5 1.897zM45.814 86.124l1.5-1.896 10.24 8.102-1.5 1.896z"/><path fill="#fff" d="M122.05 39.173h2.418v13.058h-2.418zM55.795 106.395h2.418v13.058h-2.418zM168.961 20.312h2.418V33.37h-2.418zM182.656 64.955l2.162 1.085-5.856 11.67-2.161-1.083zM171.534 113.316l2.16 1.085-5.855 11.671-2.161-1.084zM138.851 89.67l1.604-1.81 9.771 8.663-1.604 1.809zM90.973 33.087l1.604-1.81 9.771 8.663-1.604 1.81zM250.082 54.85l1.604-1.81 9.771 8.663-1.604 1.809zM191.565 12.291l1.604-1.81 9.771 8.663-1.604 1.81z"/><path fill="#ff6584" d="M140.428 62.87h2.418v13.058h-2.418zM277.036 70.17l2.225.946-5.103 12.02-2.225-.946zM92.349 85.144l2.094-1.209 6.529 11.309-2.094 1.209zM230.663 75.955l2.094-1.209 6.529 11.309-2.094 1.209zM144.581 28.079l2.094-1.21 6.53 11.31-2.095 1.209zM247.106 25.66l2.094-1.209 6.529 11.309-2.094 1.209zM114.112 15.02l2.094-1.209 6.529 11.309-2.094 1.209zM200.879 36.755h2.418v13.058h-2.418zM61.599 58.517h2.418v13.058h-2.418z"/><path d="M220.392 439.352a49.736 49.736 0 0 1-1.078-69.223q-.59.552-1.165 1.127a49.737 49.737 0 1 0 70.339 70.338q.576-.576 1.128-1.165a49.736 49.736 0 0 1-69.224-1.077Z" opacity=".2"/><path d="M272.981 386.963a27.674 27.674 0 1 0 0 39.124 27.708 27.708 0 0 0 0-39.124Zm-4.98 33.203a20.627 20.627 0 0 1-29.162 0 22.704 22.704 0 0 1-1.429-1.588 20.616 20.616 0 1 1 30.59 1.588Z" opacity=".2"/><path fill="#e6e6e6" d="m301.964 420.166-5.85 5.85a3.025 3.025 0 0 1-5.165-2.202l-.667.667a3.594 3.594 0 0 1-5.083-5.083l.556-.556a3.024 3.024 0 0 1-1.976-5.16l6.117-6.32 1.434-1.434a1.225 1.225 0 0 0-1.733-1.733l-1.434 1.434-5.301 5.097a3.027 3.027 0 0 1-4.282-4.282l4.937-5.46 2.658-2.658a2.008 2.008 0 0 0-2.84-2.84l-2.658 2.657-5.359 5.04a34.695 34.695 0 0 0-7.645-3.365 3.017 3.017 0 0 1-.842-1.633l-1.422 1.422a3.594 3.594 0 0 1-5.083-5.082l4.39-4.391a3.026 3.026 0 0 1-4.969-3.214l-3.513 3.513a3.594 3.594 0 0 1-5.083-5.083l8.367-8.366-.015-.015-8.366 8.367a3.594 3.594 0 0 1-5.083-5.083l3.484-3.483a3.026 3.026 0 0 1-3.17-4.985l3.975-3.976-.218-.218-7.143 7.143a3.594 3.594 0 0 1-5.083-5.083l3.168-3.167a3.027 3.027 0 0 1-4.282-4.282l4.713-4.712a49.754 49.754 0 0 1 60.466 62.676Z"/><path d="M247.278 384.112a3.594 3.594 0 0 1 0-5.082l-1.325 1.325a3.594 3.594 0 0 0 5.082 5.083l1.325-1.326a3.594 3.594 0 0 1-5.082 0ZM252.375 389.21a3.594 3.594 0 0 1 0-5.083l-1.325 1.325a3.594 3.594 0 1 0 5.082 5.083l1.325-1.326a3.594 3.594 0 0 1-5.082 0ZM250.761 375.546a3.026 3.026 0 0 1-3.17-4.984l-1.326 1.325a3.026 3.026 0 0 0 3.17 4.985ZM259.402 377.072l1.325-1.326.014.015-1.325 1.325zM242.29 365.26a3.027 3.027 0 1 1-4.282-4.28l-1.325 1.324a3.027 3.027 0 0 0 4.282 4.282ZM250.023 367.693l1.325-1.325.218.219-1.325 1.325zM239.123 373.51a3.594 3.594 0 0 1 0-5.082l-1.326 1.325a3.594 3.594 0 1 0 5.083 5.083l1.325-1.325a3.594 3.594 0 0 1-5.082 0ZM261.55 398.384a3.594 3.594 0 0 1 0-5.083l-1.326 1.325a3.594 3.594 0 1 0 5.083 5.083l1.325-1.325a3.594 3.594 0 0 1-5.083 0ZM292.553 404.704a1.225 1.225 0 0 0-1.733-1.733l-1.325 1.325a1.225 1.225 0 1 1 1.733 1.733ZM265.94 388.91a3.026 3.026 0 0 1-4.97-3.213l-1.325 1.325a3.026 3.026 0 0 0 4.97 3.214ZM279.804 409.503a3.027 3.027 0 0 1 0-4.282l4.937-5.46-1.326 1.324-4.936 5.461a3.027 3.027 0 1 0 4.281 4.282l5.3-5.097 1.326-1.325-5.3 5.097a3.027 3.027 0 0 1-4.282 0ZM293.056 424.794a3.018 3.018 0 0 1-.884-2.203l-.667.666a3.594 3.594 0 1 1-5.082-5.082l.555-.556a3.024 3.024 0 0 1-1.975-5.16l6.116-6.32-1.325 1.325-6.117 6.32a3.024 3.024 0 0 0 1.976 5.16l-.556.556a3.594 3.594 0 1 0 5.083 5.083l.667-.667a3.025 3.025 0 0 0 5.165 2.203l1.325-1.325a3.027 3.027 0 0 1-4.281 0ZM272.26 401.959a3.02 3.02 0 0 0-3.364-3.364 3.017 3.017 0 0 1-.842-1.633l-1.325 1.325a5.804 5.804 0 0 1 4.206 4.997 3.027 3.027 0 0 0 4.281 0l5.36-5.039 1.325-1.325-5.36 5.039a3.027 3.027 0 0 1-4.28 0ZM287.398 397.103a2.008 2.008 0 1 0-2.84-2.84l-1.325 1.325a2.008 2.008 0 1 1 2.84 2.84Z" opacity=".2"/><path fill="#3f3d56" d="m262.882 373.11.51.51-2.753 2.752-.51-.51zM273.993 381.265l.51.51-2.752 2.752-.51-.51zM284.993 375.265l.51.51-2.752 2.752-.51-.51zM250.955 379.838l.51.51-2.753 2.752-.51-.51zM276.965 395.65l.129.708-3.83.698-.128-.71zM292.965 388.65l.129.708-3.83.698-.128-.71zM253.735 365.102l.716-.084.451 3.866-.716.084zM245.274 362.35l.716-.084.451 3.866-.716.084z"/><path fill="#fff" d="m271.241 368.523.51.51-2.752 2.751-.51-.51zM292.241 382.523l.51.51-2.752 2.751-.51-.51zM300.241 402.523l.51.51-2.752 2.751-.51-.51zM243.105 368.726l.51.51-2.752 2.752-.51-.51zM278.581 386.732l.227.685-3.694 1.225-.227-.684zM266.043 394.581l.227.685-3.694 1.225-.227-.684zM264.138 382.708l.72-.043.233 3.885-.72.043zM265.973 360.69l.72-.044.233 3.885-.72.043z"/><path fill="#ff6584" d="m270.12 377.392.51.51-2.752 2.752-.51-.51zM294.12 411.392l.51.51-2.752 2.752-.51-.51zM298.12 394.392l.51.51-2.752 2.752-.51-.51zM255.29 371.952l.697.187-1.008 3.76-.696-.187zM278.328 370.933l.697.187-1.008 3.76-.696-.188zM274.658 361.758l.697.187-1.008 3.76-.696-.188zM254.42 359.858l.51.51-2.752 2.752-.51-.51z"/><path fill="#3f3d56" d="M775.38 206.93a8 8 0 1 0-16 0v358.647a8 8 0 0 0 16 0V209.253"/><path fill="#C1FE77" d="M877.43 225.963a120.362 120.362 0 0 0-221.22 92.29h14.93c3 0 5.46 3.34 5.46 7.43h2.74c3.01 0 5.47 3.34 5.47 7.43 0 4.08-2.46 7.43-5.47 7.43h-2.74a10.087 10.087 0 0 1-.19 1.85h12.5c3.01 0 5.47 3.35 5.47 7.43 0 4.09-2.46 7.43-5.47 7.43h-11.94a120.34 120.34 0 0 0 200.46-131.29Zm-81.86 99.74a49.676 49.676 0 0 1-24.52 6.42 51.473 51.473 0 0 1-5.15-.26 49.849 49.849 0 1 1 29.67-6.16Z"/><path d="M694.053 347.325a9.736 9.736 0 0 0 .328-2.5c0-4.086-2.462-7.429-5.47-7.429h-5.116a5.24 5.24 0 0 1-4.455 3.143h-2.735a9.754 9.754 0 0 1-.196 1.857h12.502c2.362 0 4.381 2.065 5.142 4.929ZM679.34 325.682c2.362 0 4.38 2.065 5.142 4.928a9.73 9.73 0 0 0 .327-2.5c0-4.085-2.461-7.428-5.47-7.428h-2.734c0-4.086-2.461-7.429-5.47-7.429H656.21a120.181 120.181 0 0 1-5.436-33.671c-.02.89-.045 1.777-.045 2.671a120.276 120.276 0 0 0 5.48 36h14.927c3.008 0 5.469 3.343 5.469 7.429ZM771.055 397.579a120.017 120.017 0 0 1-89.87-40.326h-4.219a120.323 120.323 0 0 0 214.415-75c0-.752-.022-1.5-.035-2.248a120.323 120.323 0 0 1-120.291 117.574Z" opacity=".2"/><path d="M771.05 222.383a59.87 59.87 0 1 0 59.88 59.87 59.94 59.94 0 0 0-59.88-59.87Zm24.52 103.32a49.676 49.676 0 0 1-24.52 6.42 51.473 51.473 0 0 1-5.15-.26 49.849 49.849 0 1 1 29.67-6.16Z" opacity=".2"/><path fill="#e6e6e6" d="M877.43 223.965v20.016a7.319 7.319 0 0 1-12.605 5.068v2.28a8.695 8.695 0 1 1-17.39 0v-1.9a7.315 7.315 0 0 1-12.206-5.448l-.35-21.275V217.8a2.965 2.965 0 1 0-5.928 0v4.907l-.35 17.788a7.324 7.324 0 0 1-14.647 0l-.897-17.788v-9.092a4.858 4.858 0 0 0-9.717 0v9.092l-.547 17.788a7.319 7.319 0 0 1-13.079 4.52 7.304 7.304 0 0 1-9.989 1.45v4.866a8.695 8.695 0 0 1-17.39 0v-15.022a7.321 7.321 0 0 1-13.999 3.003v12.019a8.695 8.695 0 0 1-17.39 0v-28.624h-.049v28.624a8.695 8.695 0 1 1-17.39 0v-11.918a7.32 7.32 0 0 1-13.95-3.104v-13.602h-.746v24.439a8.695 8.695 0 0 1-17.39 0v-10.837a7.324 7.324 0 0 1-14.648 0v-16.123a120.368 120.368 0 0 1 210.657 3.78Z"/><path d="M722.203 255.84a8.694 8.694 0 0 1-8.695-8.695v4.534a8.695 8.695 0 0 0 17.39 0v-4.534a8.694 8.694 0 0 1-8.695 8.694ZM739.641 255.84a8.694 8.694 0 0 1-8.695-8.695v4.534a8.695 8.695 0 0 0 17.39 0v-4.534a8.694 8.694 0 0 1-8.695 8.694ZM713.508 235.227a7.32 7.32 0 0 1-13.95-3.104v4.534a7.32 7.32 0 0 0 13.95 3.104ZM730.898 218.521h.049v4.534h-.049zM681.421 232.123a7.324 7.324 0 0 1-14.648 0v4.534a7.324 7.324 0 0 0 14.648 0ZM698.811 218.521h.746v4.534h-.746zM690.116 251.654a8.694 8.694 0 0 1-8.695-8.695v4.534a8.695 8.695 0 0 0 17.39 0v-4.534a8.694 8.694 0 0 1-8.695 8.695ZM771.03 255.84a8.694 8.694 0 0 1-8.694-8.695v4.534a8.695 8.695 0 1 0 17.39 0v-4.534a8.694 8.694 0 0 1-8.696 8.694ZM834.88 213.614a2.965 2.965 0 1 0-5.93 0v4.534a2.965 2.965 0 1 1 5.93 0ZM762.336 232.123a7.321 7.321 0 0 1-14 3.003v4.534a7.321 7.321 0 0 0 14-3.003ZM821.278 243.633a7.323 7.323 0 0 1-7.324-7.325l-.897-17.787v4.534l.897 17.787a7.324 7.324 0 0 0 14.648 0l.349-17.787v-4.534l-.35 17.787a7.323 7.323 0 0 1-7.323 7.325ZM870.106 247.12a7.3 7.3 0 0 1-5.28-2.256v2.28a8.695 8.695 0 1 1-17.39 0v-1.9a7.315 7.315 0 0 1-12.208-5.448l-.348-21.275v4.534l.348 21.275a7.315 7.315 0 0 0 12.207 5.448v1.9a8.695 8.695 0 0 0 17.39 0v-2.28a7.319 7.319 0 0 0 12.605-5.068v-4.534a7.323 7.323 0 0 1-7.324 7.324ZM795.469 243.633a7.306 7.306 0 0 1-5.755-2.805 7.304 7.304 0 0 1-9.989 1.451v4.534a7.304 7.304 0 0 0 9.99-1.45 7.319 7.319 0 0 0 13.078-4.52l.548-17.788v-4.534l-.548 17.787a7.323 7.323 0 0 1-7.324 7.325ZM813.057 209.429a4.858 4.858 0 1 0-9.716 0v4.534a4.858 4.858 0 1 1 9.716 0Z" opacity=".2"/><path fill="#3f3d56" d="M730.074 210.325h1.744v9.417h-1.744zM763.033 205.268h1.744v9.417h-1.744zM855.108 210.848h1.744v9.417h-1.744zM721.181 242.237h1.744v9.417h-1.744zM792.722 224.79l1.434.993-5.358 7.744-1.434-.993zM700.73 212.273l1.082-1.368 7.385 5.843-1.082 1.368zM803.268 177.047l1.082-1.368 7.385 5.843-1.082 1.368zM681.546 222.041l1.082-1.368 7.385 5.844-1.082 1.367z"/><path fill="#fff" d="M736.527 188.178h1.744v9.417h-1.744zM688.745 236.657h1.744v9.417h-1.744zM770.357 174.576h1.744v9.417h-1.744zM854.062 233.518h1.744v9.417h-1.744zM780.234 206.772l1.559.782-4.223 8.417-1.559-.782zM772.212 241.649l1.559.782-4.223 8.417-1.559-.782zM868.473 225.954l1.559.782-4.223 8.417-1.559-.782zM748.642 224.595l1.157-1.305 7.047 6.247-1.157 1.305zM714.114 183.789l1.157-1.305 7.047 6.247-1.157 1.305zM828.86 199.484l1.157-1.305 7.046 6.247-1.157 1.305zM786.658 168.792l1.157-1.305 7.047 6.247-1.157 1.305z"/><path fill="#ff6584" d="M749.78 205.268h1.744v9.417h-1.744zM848.299 210.533l1.605.681-3.68 8.668-1.605-.681zM715.107 221.332l1.51-.872 4.709 8.155-1.51.872zM814.855 214.705l1.51-.872 4.709 8.155-1.51.872zM752.774 180.177l1.51-.872 4.709 8.155-1.51.872zM826.714 178.433l1.51-.872 4.709 8.155-1.51.872zM730.802 170.76l1.51-.872 4.709 8.155-1.51.872zM793.376 186.434h1.744v9.417h-1.744zM692.93 202.129h1.744v9.417h-1.744z"/><circle cx="354.258" cy="504.177" r="42.012" fill="#2f2e41"/><path fill="#2f2e41" d="m383.043 555.713-12.559 2.274-4.073-22.501 12.559-2.274zM357.925 560.26l-12.559 2.274-4.073-22.501 12.559-2.274z"/><ellipse cx="503.301" cy="722.762" fill="#2f2e41" rx="10.636" ry="3.989" transform="rotate(-40.261 210.124 853.35)"/><ellipse cx="527.896" cy="718.31" fill="#2f2e41" rx="10.636" ry="3.989" transform="rotate(-40.261 234.719 848.897)"/><circle cx="351.316" cy="493.901" r="14.359" fill="#fff"/><circle cx="345.415" cy="488.754" r="4.786" fill="#3f3d56"/><path fill="#cfcce0" d="M387.4 458.473c.631-15.554-12.774-28.728-29.941-29.425s-31.597 11.346-32.229 26.9 11.302 19.087 28.47 19.784 33.068-1.706 33.7-17.26Z"/><ellipse cx="469.311" cy="655.06" fill="#2f2e41" rx="6.594" ry="21.006" transform="rotate(-77.09 292.894 672.342)"/><ellipse cx="551.78" cy="668.775" fill="#2f2e41" rx="6.594" ry="21.006" transform="rotate(-77.09 375.363 686.056)"/><path fill="#fff" d="M365.796 520.734a9.572 9.572 0 1 1-18.838 3.41c-.942-5.202 3.08-7.043 8.282-7.984s9.615-.628 10.556 4.574Z"/><ellipse cx="740.583" cy="514.548" fill="#2f2e41" rx="21.534" ry="6.76" transform="rotate(-69.082 548.5 547.031)"/><circle cx="561.649" cy="512.284" r="43.067" fill="#2f2e41"/><path fill="#2f2e41" d="M542.023 546.083h13.084v23.442h-13.084zM568.191 546.083h13.084v23.442h-13.084z"/><ellipse cx="552.927" cy="569.798" fill="#2f2e41" rx="10.903" ry="4.089"/><ellipse cx="579.094" cy="569.252" fill="#2f2e41" rx="10.903" ry="4.089"/><circle cx="562.739" cy="501.381" r="14.719" fill="#fff"/><circle cx="562.739" cy="501.381" r="4.906" fill="#3f3d56"/><path fill="#cfcce0" d="M519.872 472.232c-3.477-15.574 7.639-31.31 24.829-35.149s33.944 5.676 37.422 21.25-7.915 21.317-25.105 25.155-33.668 4.318-37.146-11.256Z"/><circle cx="546.93" cy="388.533" r="43.067" fill="#2f2e41"/><path fill="#2f2e41" d="M527.304 422.333h13.084v23.442h-13.084zM553.472 422.333h13.084v23.442h-13.084z"/><ellipse cx="538.207" cy="446.047" fill="#2f2e41" rx="10.903" ry="4.089"/><ellipse cx="564.375" cy="445.502" fill="#2f2e41" rx="10.903" ry="4.089"/><circle cx="548.02" cy="377.63" r="14.719" fill="#fff"/><circle cx="548.02" cy="377.63" r="4.906" fill="#3f3d56"/><path fill="#cfcce0" d="M505.153 348.482c-3.477-15.574 7.639-31.31 24.829-35.149s33.944 5.675 37.421 21.249-7.915 21.318-25.105 25.156-33.667 4.318-37.145-11.256Z"/><ellipse cx="652.267" cy="527.087" fill="#2f2e41" rx="6.76" ry="21.534" transform="rotate(-64.626 450.017 569.438)"/><path fill="#fff" d="M525.775 404.07c0 4.215 10.854 12.539 22.897 12.539s23.335-11.867 23.335-16.082-11.292.817-23.335.817-22.897-1.489-22.897 2.726Z"/><circle cx="672.697" cy="441.69" r="6" fill="#C1FE77"/><circle cx="689.04" cy="393.253" r="6" fill="#C1FE77"/><circle cx="674.097" cy="368.495" r="6" fill="#C1FE77"/><path fill="#2f2e41" d="m625.53 548.131-3.227-11.675 20.918-5.782 3.227 11.675z"/><ellipse cx="774.907" cy="699.004" fill="#2f2e41" rx="3.785" ry="10.094" transform="rotate(-15.453 113.698 1186.701)"/><ellipse cx="835.976" cy="654" fill="#2f2e41" rx="19.935" ry="6.258" transform="rotate(-82.281 668.315 662.784)"/><circle cx="678.227" cy="532.784" r="39.871" fill="#2f2e41"/><path fill="#2f2e41" d="m625.53 541.066-3.227-11.676 20.917-5.782 3.228 11.675z"/><ellipse cx="774.907" cy="691.938" fill="#2f2e41" rx="3.785" ry="10.094" transform="rotate(-15.452 113.709 1179.656)"/><circle cx="688.696" cy="509.944" r="13.627" fill="#fff"/><circle cx="693.054" cy="503.924" r="4.542" fill="#3f3d56"/><path fill="#cfcce0" d="M724.27 560.183c14.754-.738 26.055-14.539 25.24-30.825s-13.437-28.889-28.192-28.15-17.07 12.32-16.254 28.606 4.451 31.108 19.206 30.37Z"/><path fill="#fff" d="M661.932 515.915a9.084 9.084 0 0 1-1.466-18.11c5-.405 6.365 3.565 6.77 8.566s-.303 9.139-5.304 9.544Z"/><ellipse cx="821.011" cy="663.473" fill="#2f2e41" rx="19.935" ry="6.258" transform="rotate(-82.281 653.35 672.257)"/><circle cx="669.697" cy="480.69" r="6" fill="#C1FE77"/><path fill="#C1FE77" d="M634.733 342.67a7.454 7.454 0 0 0-7.437-8.417h-2.377a7.429 7.429 0 0 0 .877-3.5 7.522 7.522 0 0 0-7.5-7.5h-25a7.5 7.5 0 0 0 0 15h2.376a7.43 7.43 0 0 0-.876 3.5 7.523 7.523 0 0 0 5.062 7.083 7.453 7.453 0 0 0 7.438 8.417h25a7.494 7.494 0 0 0 2.437-14.582Z"/><path fill="#3f3d56" d="m298.723 396.316.542.543-2.929 2.929-.542-.543z"/></svg>