<svg xmlns="http://www.w3.org/2000/svg" width="238.177" height="134.26"><g data-name="Group 285"><text fill="#737b80" data-name="Is homepage" font-family="Archivo-Light, Archivo" font-size="2" font-weight="300" letter-spacing=".014em" transform="translate(178.478 38.129)"><tspan x="0" y="0">Is homepage</tspan></text><g data-name="Group 46"><rect width="5.058" height="5.058" fill="#6554fb" data-name="Rectangle 33" rx="2.529" transform="translate(170.53 36.129)"/><path fill="#fff" d="M174.466 37.609a.18.18 0 0 1 0 .254l-1.438 1.438a.18.18 0 0 1-.254 0l-.719-.719a.18.18 0 0 1 .254-.251l.592.591 1.311-1.31a.18.18 0 0 1 .254 0Z"/><g><path fill="#f2f2f2" d="M215.676 19.921a96.419 96.419 0 0 1-.909 12.39l-.062.433-38.821-.217a19.328 19.328 0 0 1-1.349-1.935c-1.5-2.488-2.185-5.4-1.5-7.41l.012-.031a3.527 3.527 0 0 1 .688-1.2c1.568-1.765 4.738-1.471 7.614-.046-2.58-2.824-4.635-6.388-4.791-9.569-.153-3.1 1.469-5.319 3.229-7.2l.173-.183.086-.092c1.373-1.435 2.974-2.851 5.29-2.679 2.541.188 5.358 2.316 7.333 4.8a41.472 41.472 0 0 1 4.618 8.041 32.455 32.455 0 0 0 4.911 7.909 30.247 30.247 0 0 1-6.092-11.882c-.862-4.053-.1-7.945 2.477-9.853A6.036 6.036 0 0 1 201.227.13c.111-.019.224-.034.339-.047a10.6 10.6 0 0 1 7.668 2.529 17.651 17.651 0 0 1 5.447 8.458 28.832 28.832 0 0 1 .995 8.851Z" data-name="Path 73"/><path fill="#fff" d="M190.277 32.608h-.742q-.354-.221-.71-.437c-.147-.093-.3-.182-.445-.274q-3.693-2.256-7.433-4.327t-7.51-3.956a.311.311 0 0 1-.179-.356.09.09 0 0 1 .012-.026c.035-.066.114-.093.228-.037.309.155.619.309.927.468q3.784 1.915 7.536 4.02t7.455 4.4l.156.1Z" data-name="Path 74"/><path fill="#fff" d="M199.849 32.66h-.459l-.309-.435-7.3-10.233q-5.973-8.377-11.942-16.753a.3.3 0 0 1-.052-.1c-.034-.124.057-.2.173-.183a.348.348 0 0 1 .243.154l6.7 9.392 11.881 16.668.756 1.06.309.43Z" data-name="Path 75"/><path fill="#fff" d="M210.074 29.995a39.717 39.717 0 0 1-.141 2.289l-.039.433h-.482a40.09 40.09 0 0 0 .226-3.756 46.365 46.365 0 0 0-.913-9.345 58.184 58.184 0 0 0-2.827-9.709 66.682 66.682 0 0 0-4.625-9.606.256.256 0 0 1-.043-.171c.02-.137.2-.178.339-.047a.4.4 0 0 1 .069.087q.333.573.654 1.149a66.629 66.629 0 0 1 4.427 9.64 57.909 57.909 0 0 1 2.635 9.724 45.742 45.742 0 0 1 .72 9.312Z" data-name="Path 76"/><path fill="#f2f2f2" d="M64.109 59.205a96.429 96.429 0 0 1-.909 12.39l-.062.433-38.821-.217a19.328 19.328 0 0 1-1.349-1.935c-1.5-2.488-2.185-5.4-1.5-7.41l.012-.031a3.526 3.526 0 0 1 .688-1.2c1.568-1.765 4.738-1.471 7.614-.046-2.58-2.824-4.634-6.388-4.791-9.569-.153-3.1 1.469-5.319 3.229-7.2l.173-.183.086-.092c1.373-1.435 2.974-2.851 5.29-2.679 2.541.188 5.358 2.316 7.333 4.8a41.472 41.472 0 0 1 4.618 8.041 32.454 32.454 0 0 0 4.911 7.909 30.247 30.247 0 0 1-6.092-11.882c-.862-4.053-.1-7.945 2.477-9.853a6.036 6.036 0 0 1 2.644-1.067c.111-.018.224-.034.339-.047a10.6 10.6 0 0 1 7.668 2.529 17.652 17.652 0 0 1 5.447 8.458 28.833 28.833 0 0 1 .995 8.851Z" data-name="Path 77"/><path fill="#fff" d="M38.71 71.891h-.742q-.354-.221-.71-.437c-.147-.093-.3-.182-.445-.274q-3.693-2.256-7.433-4.328t-7.51-3.956a.311.311 0 0 1-.179-.356.09.09 0 0 1 .012-.026c.035-.066.114-.093.228-.037.309.155.619.309.928.468q3.784 1.915 7.536 4.02t7.455 4.4l.156.1Z" data-name="Path 78"/><path fill="#fff" d="M48.282 71.945h-.459l-.309-.435-7.3-10.233Q34.241 52.9 28.272 44.524a.3.3 0 0 1-.052-.1c-.034-.124.057-.2.173-.183a.349.349 0 0 1 .243.154l6.7 9.392 11.881 16.668.756 1.06c.103.141.209.285.309.43Z" data-name="Path 79"/><path fill="#fff" d="M58.509 69.279a39.717 39.717 0 0 1-.141 2.289l-.039.433h-.482a40.09 40.09 0 0 0 .226-3.756 46.361 46.361 0 0 0-.913-9.345 58.19 58.19 0 0 0-2.827-9.709 66.676 66.676 0 0 0-4.625-9.606.256.256 0 0 1-.042-.171c.02-.137.2-.178.339-.047a.4.4 0 0 1 .069.087q.333.573.654 1.149a66.624 66.624 0 0 1 4.427 9.64 57.91 57.91 0 0 1 2.635 9.724 45.742 45.742 0 0 1 .719 9.312Z" data-name="Path 80"/><path fill="#6554fb" d="M83.316 88.576a2.054 2.054 0 0 1-1.8-1.066l-2.078-3.8a2.054 2.054 0 0 1 .814-2.786l31.631-17.321a2.054 2.054 0 0 1 2.786.814l2.078 3.8a2.054 2.054 0 0 1-.814 2.785L84.298 88.328a2.04 2.04 0 0 1-.982.248Z" data-name="Path 81"/><path fill="#6554fb" d="M127.329 68.508a2.06 2.06 0 0 1-.628-.1 2.038 2.038 0 0 1-1.2-1.013l-1.983-3.846a2.054 2.054 0 0 1 .884-2.764l32.057-16.525a2.054 2.054 0 0 1 2.764.884l1.983 3.846a2.054 2.054 0 0 1-.884 2.764L128.268 68.28a2.039 2.039 0 0 1-.939.228Z" data-name="Path 82"/><path fill="#2f2e41" d="M126.754 69.439a2.058 2.058 0 0 1-1.838-1.133l-1.941-3.867a2.048 2.048 0 0 1-.159-1.41c.013-.052.028-.1.045-.157.039-.118.082-.3.131-.516.157-.68.353-1.527.752-1.727l14.084-8.537a2.051 2.051 0 0 1 2.765.908l3.553 7.323a2.054 2.054 0 0 1-.914 2.753l-15.578 6.149a2.01 2.01 0 0 1-.9.214Z" data-name="Path 83"/><circle cx="15.69" cy="15.69" r="15.69" fill="#6554fb" data-name="Ellipse 13" transform="translate(104.627 18.493)"/><path fill="#6554fb" d="M117.845 133.815h-4.327a2.054 2.054 0 0 1-2.052-2.052V95.697a2.054 2.054 0 0 1 2.052-2.052h4.327a2.055 2.055 0 0 1 2.052 2.052v36.063a2.054 2.054 0 0 1-2.052 2.055Z" data-name="Path 84"/><path fill="#6554fb" d="M136.488 117.344a2.051 2.051 0 0 1-1.672-.858l-20.975-29.332a2.054 2.054 0 0 1 .476-2.863l3.52-2.517a2.054 2.054 0 0 1 2.863.476l20.975 29.336a2.054 2.054 0 0 1-.476 2.863l-3.52 2.517a2.042 2.042 0 0 1-1.191.378Z" data-name="Path 85"/><path fill="#6554fb" d="M130.923 133.856a2.826 2.826 0 0 1-1.239-.31l-3.874-1.928c-1.013-.5-1.571-1.449-1.244-2.105l9.983-20.052c.327-.656 1.417-.78 2.43-.276l3.874 1.928a2.732 2.732 0 0 1 1.11.965 1.16 1.16 0 0 1 .134 1.14l-9.983 20.052a1.257 1.257 0 0 1-1.191.586Z" data-name="Path 86"/><path fill="#2f2e41" d="M105.725 77.894a2.058 2.058 0 0 1-1.856-1.178l-3.564-7.313a2.052 2.052 0 0 1 .982-2.732l15.434-5.814c.393-.186 1.18.183 1.812.479.2.093.37.173.487.215.051.018.1.039.151.061a2.049 2.049 0 0 1 1.011 1l1.842 3.915a2.055 2.055 0 0 1-.983 2.731l-14.43 8.439a2.068 2.068 0 0 1-.886.2Z" data-name="Path 87"/><path fill="#2f2e41" d="m118.229 39.999-.016-.586a4.849 4.849 0 0 0 2.775-.627 1.8 1.8 0 0 0 .7-1.328 1.03 1.03 0 0 0-.338-.849 1.776 1.776 0 0 0-1.814-.016l-.485.222.93-6.8.581.08-.791 5.783a2.07 2.07 0 0 1 1.958.282 1.6 1.6 0 0 1 .545 1.317 2.384 2.384 0 0 1-.938 1.78 5.4 5.4 0 0 1-3.107.742Z" data-name="Path 88"/><path fill="#2f2e41" d="M123.433 30.596h3.158v.586h-3.158z" data-name="Rectangle 234"/><path fill="#2f2e41" d="M113.465 30.596h3.158v.586h-3.158z" data-name="Rectangle 235"/><path fill="#2f2e41" d="M145.464 100.106H96.657a1.9 1.9 0 0 1-1.65-2.858l24.4-42.268a1.886 1.886 0 0 1 1.65-.953 1.886 1.886 0 0 1 1.65.953l24.4 42.268a1.906 1.906 0 0 1-1.65 2.858Z" data-name="Path 89"/><path fill="#3f3d56" d="M176.043 134.259h-111.7a.293.293 0 0 1 0-.586h111.7a.293.293 0 0 1 0 .586Z" data-name="Path 90"/><path fill="#2f2e41" d="M121.503 18.3a16.368 16.368 0 0 0-15.71-12.2 16.644 16.644 0 0 0-9.838 3.567 15.9 15.9 0 0 0-3.608 3.947 20.1 20.1 0 0 0-2.307 5.555c-1.079 3.913-1.587 8.341-4.325 11.537a12.024 12.024 0 0 1-9.1 4.093 11.234 11.234 0 0 1-8.882-4.586 10.8 10.8 0 0 1-1.885-9.863 4.93 4.93 0 0 1 3.637-3.435 4.24 4.24 0 0 1 4.2 2.009 4.174 4.174 0 0 1-.463 4.56 4.108 4.108 0 0 1-6.289-.173c-.351-.444-.974.178-.626.618a5.084 5.084 0 0 0 4.643 1.774 4.746 4.746 0 0 0 3.782-3.16 4.819 4.819 0 0 0-.879-4.871 5.157 5.157 0 0 0-4.79-1.569 5.745 5.745 0 0 0-3.9 3.609 10.073 10.073 0 0 0-.525 5.526 12.947 12.947 0 0 0 5.926 8.731 12.205 12.205 0 0 0 10.463.951 12.822 12.822 0 0 0 4.594-2.829 13.747 13.747 0 0 0 3.164-5.05c1.547-4.05 1.774-8.583 3.962-12.39a15.593 15.593 0 0 1 8.482-6.859 14.581 14.581 0 0 1 10.821.519 15.922 15.922 0 0 1 7.708 7.654 14.251 14.251 0 0 1 .9 2.559.44.44 0 0 0 .849-.228Z" data-name="Path 91"/><path fill="#3f3d56" d="M229.433 73.574h-68.894a4.989 4.989 0 0 1-4.984-4.984V37.515a4.989 4.989 0 0 1 4.984-4.984h68.894a4.989 4.989 0 0 1 4.984 4.984v31.076a4.989 4.989 0 0 1-4.984 4.983Zm-68.894-40.457a4.4 4.4 0 0 0-4.4 4.4v31.076a4.4 4.4 0 0 0 4.4 4.4h68.894a4.4 4.4 0 0 0 4.4-4.4V37.515a4.4 4.4 0 0 0-4.4-4.4Z" data-name="Path 92"/><circle cx="6.376" cy="6.376" r="6.376" fill="#ccc" transform="translate(168.054 40.851)"/><path fill="#ccc" d="M188.275 42.976a1.063 1.063 0 1 0 0 2.125h32.506a1.063 1.063 0 0 0 .035-2.125h-32.54ZM188.275 49.352a1.063 1.063 0 1 0 0 2.125h32.506a1.063 1.063 0 0 0 .035-2.125h-32.54Z"/><path fill="#ccc" d="M169.042 56.755a1.063 1.063 0 1 0 0 2.125h51.854a1.063 1.063 0 1 0 .035-2.125h-51.889Z" data-name="e49b4965-a9e9-4371-9134-194e44e65c31"/><path fill="#ccc" d="M169.042 63.131a1.063 1.063 0 1 0 0 2.125h51.854a1.063 1.063 0 0 0 .035-2.125h-51.889Z" data-name="abc4586a-ac92-4255-aae6-84f53baad571"/><path fill="#6554fb" d="M232.397 65.836c7.707.132 7.706 11.6 0 11.727-7.707-.127-7.706-11.592 0-11.727Z" data-name="Path 93"/><path fill="#fff" d="M232.394 74.897a.413.413 0 0 1-.412-.412v-2.188a.184.184 0 0 0-.184-.184h-2.185a.412.412 0 1 1 0-.824h2.185a.184.184 0 0 0 .184-.184V68.92a.412.412 0 1 1 .824 0v2.185a.184.184 0 0 0 .184.184h2.185a.412.412 0 1 1 0 .824h-2.181a.184.184 0 0 0-.184.184v2.185a.412.412 0 0 1-.416.415Z" data-name="Path 94"/><path fill="#3f3d56" d="M77.867 112.859H8.973a4.989 4.989 0 0 1-4.984-4.984V76.8a4.989 4.989 0 0 1 4.984-4.984h68.894a4.989 4.989 0 0 1 4.984 4.984v31.076a4.989 4.989 0 0 1-4.984 4.983ZM8.973 72.402a4.4 4.4 0 0 0-4.4 4.4v31.076a4.4 4.4 0 0 0 4.4 4.4h68.894a4.4 4.4 0 0 0 4.4-4.4V76.8a4.4 4.4 0 0 0-4.4-4.4Z" data-name="Path 95"/><path fill="#ccc" d="M17.475 84.862a1.063 1.063 0 1 0 0 2.125h51.854a1.063 1.063 0 1 0 .035-2.125H17.475Z" data-name="e49b4965-a9e9-4371-9134-194e44e65c31"/><path fill="#ccc" d="M17.475 91.238a1.063 1.063 0 1 0 0 2.125h51.854a1.063 1.063 0 1 0 .035-2.125H17.475ZM17.475 97.688a1.063 1.063 0 1 0 0 2.125h51.854a1.063 1.063 0 1 0 .035-2.125H17.475Z" data-name="abc4586a-ac92-4255-aae6-84f53baad571"/><path fill="#6554fb" d="M5.78 105.121c7.707.132 7.706 11.6 0 11.727-7.707-.127-7.706-11.592 0-11.727Z" data-name="Path 96"/><path fill="#fff" d="M5.777 114.182a.413.413 0 0 1-.412-.412v-2.188a.184.184 0 0 0-.184-.184H2.996a.412.412 0 0 1 0-.824h2.185a.184.184 0 0 0 .184-.184v-2.185a.412.412 0 1 1 .824 0v2.185a.184.184 0 0 0 .184.184h2.185a.412.412 0 1 1 0 .824H6.377a.184.184 0 0 0-.184.184v2.185a.413.413 0 0 1-.416.415Z" data-name="Path 97"/></g></g></g></svg>