<svg xmlns="http://www.w3.org/2000/svg" width="1133.51" height="614.03" data-name="Layer 1"><defs><linearGradient id="a" x1="471.53" x2="653.02" y1="431.78" y2="431.78" gradientUnits="userSpaceOnUse"><stop offset="0" stop-color="gray" stop-opacity=".25"/><stop offset=".54" stop-color="gray" stop-opacity=".12"/><stop offset="1" stop-color="gray" stop-opacity=".1"/></linearGradient></defs><path fill="none" stroke="#535461" stroke-miterlimit="10" stroke-width="2" d="M123.6 410.27s-10.75-60.88-50.63-91.06c-16.73-12.66-29-29.87-34.32-49.49a148.82 148.82 0 0 1-4.82-28.4"/><path fill="#C1FE77" d="M8.82 222.16c3.36 6.53 25.6 19.73 25.6 19.73s2.8-24.66-.55-31.19-11.68-9.26-18.6-6.09-9.8 11.03-6.45 17.55ZM6.75 267.81c6.58 3.76 32.85 3.42 32.85 3.42s-11.85-22.14-18.48-25.9a14.4 14.4 0 0 0-19.11 4.43 12.74 12.74 0 0 0 4.74 18.05ZM39.36 329.2c7.68.11 30.18-12.7 30.18-12.7s-22.07-13.49-29.79-13.58-14 5.68-14.13 12.94 6.05 13.22 13.74 13.34ZM75.14 370.39c7.56 1.34 32-7.7 32-7.7s-19.35-16.79-26.9-18.13-14.83 3.36-16.24 10.5 3.59 13.95 11.14 15.33ZM66.49 260.46c-2.62 6.82-23.31 22.11-23.31 22.11s-5.43-24.26-2.85-31.08 10.61-10.34 17.83-7.87 10.96 10.02 8.33 16.84ZM107.75 309.14c-4.67 5.76-29.25 14.51-29.25 14.51s2.46-24.7 7.13-30.46a14.45 14.45 0 0 1 19.5-2.47 12.66 12.66 0 0 1 2.62 18.42ZM140.87 361.64c-3.57 6.42-26.23 19-26.23 19s-2-24.73 1.57-31.16a14.34 14.34 0 0 1 18.78-5.55 12.8 12.8 0 0 1 5.88 17.71Z"/><path d="M8.82 222.16c3.36 6.53 25.6 19.73 25.6 19.73s2.8-24.66-.55-31.19-11.68-9.26-18.6-6.09-9.8 11.03-6.45 17.55ZM6.75 267.81c6.58 3.76 32.85 3.42 32.85 3.42s-11.85-22.14-18.48-25.9a14.4 14.4 0 0 0-19.11 4.43 12.74 12.74 0 0 0 4.74 18.05ZM39.36 329.2c7.68.11 30.18-12.7 30.18-12.7s-22.07-13.49-29.79-13.58-14 5.68-14.13 12.94 6.05 13.22 13.74 13.34ZM75.14 370.39c7.56 1.34 32-7.7 32-7.7s-19.35-16.79-26.9-18.13-14.83 3.36-16.24 10.5 3.59 13.95 11.14 15.33ZM66.49 260.46c-2.62 6.82-23.31 22.11-23.31 22.11s-5.43-24.26-2.85-31.08 10.61-10.34 17.83-7.87 10.96 10.02 8.33 16.84ZM107.75 309.14c-4.67 5.76-29.25 14.51-29.25 14.51s2.46-24.7 7.13-30.46a14.45 14.45 0 0 1 19.5-2.47 12.66 12.66 0 0 1 2.62 18.42ZM140.87 361.64c-3.57 6.42-26.23 19-26.23 19s-2-24.73 1.57-31.16a14.34 14.34 0 0 1 18.78-5.55 12.8 12.8 0 0 1 5.88 17.71Z" opacity=".25"/><path fill="none" stroke="#535461" stroke-miterlimit="10" stroke-width="2" d="M122.25 408.67s16.31-59.77-7.2-102.62c-9.87-18-13.67-38.4-10.14-58.37a150.1 150.1 0 0 1 7.84-27.81"/><path fill="#C1FE77" d="M98.05 192.79c.27 7.25 14.94 27.83 14.94 27.83s13.15-21.48 12.88-28.74-6.7-12.92-14.39-12.68-13.73 6.34-13.43 13.59ZM76.53 233.71c4.39 5.95 28.56 15.69 28.56 15.69s-1.34-24.77-5.73-30.73a14.45 14.45 0 0 0-19.38-3.26 12.69 12.69 0 0 0-3.45 18.3ZM80.03 302.32c7 3 33.05-.06 33.05-.06s-14.4-20.75-21.38-23.8-15.24-.17-18.47 6.42-.18 14.4 6.8 17.44ZM95.07 353.67c6.33 4.11 32.58 5.21 32.58 5.21s-10.48-22.75-16.81-26.87a14.44 14.44 0 0 0-19.35 3.38 12.67 12.67 0 0 0 3.58 18.28ZM134.34 249.86c-5.32 5.23-30.8 11.3-30.8 11.3s5.41-24.28 10.74-29.51a14.5 14.5 0 0 1 19.67-.37 12.63 12.63 0 0 1 .39 18.58ZM151.12 310.12c-6.74 3.49-33 2.09-33 2.09s12.85-21.64 19.59-25.13a14.34 14.34 0 0 1 18.89 5.21 12.75 12.75 0 0 1-5.48 17.83ZM158.91 370.81c-6 4.52-32.13 7.31-32.13 7.31s8.8-23.37 14.82-27.88a14.47 14.47 0 0 1 19.55 2.11 12.65 12.65 0 0 1-2.24 18.46Z"/><path fill="#C1FE77" d="M1118.52 557.38a75.56 75.56 0 0 1-14.53 13c-24.38 16.85-59.07 23.82-92.67 28.22q-11.21 1.47-22.49 2.65c-46.58 4.94-93.81 6.59-141 7.81q-10.14.27-20.29.51c-47.59 1.17-95.22 2.34-142.84 3.19-57.17 1-114.35 1.59-171.48 1.14-56.09-.43-112.13-1.82-168.08-4.72q-8.07-.4-16.13-.87c-49-2.79-98.84-7-145.69-16.93a425.84 425.84 0 0 1-71.11-21.17c-18-7.28-35.27-16.28-49.13-27.12-10.8-8.45-19.54-18-25-28.76-12.53-24.73-5.91-52.53 8.43-76.77s35.87-46 54.44-68.76c39.59-48.55 65.41-109.87 28.88-159.61-10.5-14.29-25.69-26.83-34.24-41.75-12.3-21.49-9.66-45.66-5.17-68.62 6-30.5 17.09-63.39 51.47-82.44 35.74-19.8 86.46-18.8 130.81-11.72 65.9 10.52 127 32 188.32 52l.65.21 7.88 2.56 3.52 1.13q7.71 2.49 15.49 4.92l1.89.58h.14l.8.25.74.22 1.25.4q9.6 3 19.29 5.81h.13c.9.27 1.79.53 2.69.78h.06q5.53 1.62 11.08 3.16l1.27.36.23.06h.14c46.25 12.84 94.05 22.57 143.48 24 62.37 1.81 135.14-11.69 176.55-46.76 40.21-34.08 115.8-36.67 170.31-16.08 52 19.63 85.64 61.19 83.1 102.69-3.68 60.41-73.65 106.79-115.39 159.64-19.45 24.64-33.2 54.24-19.81 80.81 24.33 48.27 120.54 59.44 155.34 104.41 17.01 22.08 14.96 50.32-3.33 71.57Z" opacity=".1"/><path fill="#65617d" d="m312.75 431.91-129.4 159.44a425.84 425.84 0 0 1-71.11-21.17c-18-7.28-35.27-16.28-49.13-27.12l142.1-116.65ZM1118.52 557.38a75.56 75.56 0 0 1-14.53 13c-24.38 16.85-59.07 23.82-92.67 28.22q-11.21 1.47-22.49 2.65L851.39 431.91l107.58-5.5ZM522.46 435.2l-.23 4.49-.07 1.24-4.9 95v.12l-.51 10.96-.26 4.91-3.19 62c-56.09-.43-112.13-1.82-168.08-4.72l70.81-173.95ZM847.86 609.01q-10.14.27-20.29.51c-47.59 1.17-95.22 2.34-142.84 3.19L628.94 435.2h104.29Z"/><path d="m312.75 431.91-129.4 159.44a425.84 425.84 0 0 1-71.11-21.17c-18-7.28-35.27-16.28-49.13-27.12l142.1-116.65ZM1118.52 557.38a75.56 75.56 0 0 1-14.53 13c-24.38 16.85-59.07 23.82-92.67 28.22q-11.21 1.47-22.49 2.65L851.39 431.91l107.58-5.5ZM522.46 435.2l-.23 4.49-.07 1.24-4.9 95v.12l-.51 10.96-.26 4.91-3.19 62c-56.09-.43-112.13-1.82-168.08-4.72l70.81-173.95ZM847.86 609.01q-10.14.27-20.29.51c-47.59 1.17-95.22 2.34-142.84 3.19L628.94 435.2h104.29Z" opacity=".1"/><path fill="#3f3d56" d="M587.99 533.01c-2.89-.13-18.67 6.54-18.67 6.54s-5 2.79-17.77 4.58c-8.34 1.18-9.45-2.84-9.22-5.77a10.38 10.38 0 0 1 .63-2.81v-17.73s26-15.87 28-16.87a2 2 0 0 1 .8-.17c3.21-.13 12.41 3.14 17.38 6.65 5.49 3.89 12.48 1.51 12.48 1.51s13.56-10.93 17.13-2.93a7.48 7.48 0 0 1 .49 1.43c2.61 10.57-28.35 25.66-31.25 25.57Z"/><path d="M542.96 522.08v-4.26s26-15.87 28-16.87a2 2 0 0 1 .8-.17c1.19 1.23 2.26 2.33 2.9 3 1.89 1.9-15.36 23.54-31.7 18.3Z" opacity=".1"/><path fill="#65617d" d="m538.97 519.01-2.39-10.75s0-9.29-3.3-11.09-12.29-64.16-12.29-64.16.3-13.78-2.1-15.58 0-3.78 0-3.78a16.88 16.88 0 0 0-1.06-5.81 27.77 27.77 0 0 1-1.63-6.28s1.2-4.5 0-5.69c-.84-.84.23-2.41-1.73-5.55a22.53 22.53 0 0 0-4.56-4.94c-6.79-5.74-.09-70.76 1.75-87.47.28-2.49.45-3.9.45-3.9h16l2 7.19 3.19 13.29s2.1 1.39 2.1 3.19 12.58 39.84 12.58 39.84a34.56 34.56 0 0 1 2.4 4.79c.3 1.2 3 3.3 3 3.3a8.67 8.67 0 0 0 0 7.19c1.79 3.59 6.89 18.57 5.09 25.76s-3.9 7.79-3.9 7.79-1.79 5.32 1.2 7.3.9 5.58.9 5.58l3.9 33.56s-.3 15 4.19 20.37 5.09 18.27 5.09 18.27l-3.38 1.44-.61.27-.2.09s6.89 7.19 9 9.29-18.32 27.29-35.69 16.49Z"/><path d="M574.62 502.55c-1.81 5.42-20 25-35.65 15.27l-2.39-10.75c4.28-3.47 17.63-13.6 29.25-15.1l-.2.09.81.84-.61.27-.2.09s6.89 7.19 8.99 9.29Z" opacity=".1"/><path fill="#65617d" d="m538.97 519.01-2.39-10.75c4.28-3.47 17.63-13.6 29.25-15.1l-.2.09s6.89 7.19 9 9.29-18.29 27.27-35.66 16.47Z"/><circle cx="584.1" cy="509.68" r=".75" fill="#fff"/><circle cx="579.21" cy="508.94" r=".75" fill="#fff"/><circle cx="588.3" cy="510.43" r=".75" fill="#fff"/><circle cx="574.02" cy="508.19" r=".75" fill="#fff"/><path d="M587.99 533.01c-2.89-.13-18.67 6.54-18.67 6.54s-5 2.79-17.77 4.58c-8.34 1.18-9.45-2.84-9.22-5.77a9.74 9.74 0 0 0 6.72.48c5.69-1.49 25.37-4.64 25.37-4.64s13-4.74 13.38-7.44l30.95-20.75a7.48 7.48 0 0 1 .49 1.43c2.61 10.57-28.35 25.66-31.25 25.57Z" opacity=".1"/><path fill="#C1FE77" d="M566.2 297.87h7.19v230.97h-7.19z"/><path fill="#C1FE77" d="M572.84 300.51a9.73 9.73 0 0 1 19.21-1 16.74 16.74 0 0 1 2.38 1.89 2.55 2.55 0 0 0 4.26-2.2.88.88 0 0 1 0-.17 16.33 16.33 0 1 0-31 9.13 16.32 16.32 0 0 1 5.15-7.65ZM563.95 520.61h12.13v16.93h-12.13z"/><path fill="#fabdbd" d="M512.5 93.32a42.22 42.22 0 0 0-6 10.68c-4.76 12.56-1.19 22.68-1.19 22.68s-43.34-9.59-39.14-14.38c2.54-2.91 4.64-14.1 5.9-22.46.82-5.45 1.29-9.7 1.29-9.7s52.12-3.79 39.14 13.18Z"/><path fill="#3f3d56" d="M524.95 543.01a12.87 12.87 0 0 1-4.36 7.53c-3.3 2.79-34.75 3.79-41.14 1.4s-26.76-3.3-31.86-3.5-7.08-4.89-8.19-7.19c-.31-.66-.08-2.11.44-3.85 1.27-4.27 4.23-10.29 4.86-10.93.48-.48.94-2.44 1.25-4.16.27-1.49.45-2.8.45-2.8 13.67 9.32 31.65-6.52 31.65-6.52a3.66 3.66 0 0 1 2.2-.4c3.44.42 7.19 4.93 7.19 6.92 0 2.43 9.48 7 9.48 7 2.7 3.1 14.68 8.89 14.68 8.89s8.19.2 11.79 3.29a4.76 4.76 0 0 1 1.56 4.32Z"/><path d="M524.95 543.01a12.87 12.87 0 0 1-4.36 7.53c-3.3 2.79-34.75 3.79-41.14 1.4s-26.76-3.3-31.86-3.5-7.08-4.89-8.19-7.19c-.31-.66-.08-2.11.44-3.85a123.87 123.87 0 0 1 13.25 4.05c6.39 2.5 19.67 6.09 22 5-.04.03 31.47 8.82 49.86-3.44ZM514.47 390.35a22.53 22.53 0 0 0-4.56-4.94c-6.79-5.74-.09-70.76 1.75-87.47 7.85-.44 13.35-.29 13.82.89 1.62 4.05-8.87 76.9-11.01 91.52ZM480.25 512.63v3.38c-22 22.57-30.8 14.85-34.3 6.32.27-1.49.45-2.8.45-2.8 13.67 9.32 31.65-6.52 31.65-6.52a3.66 3.66 0 0 1 2.2-.38Z" opacity=".1"/><path fill="#65617d" d="M523.75 304.11c-1.3 20.08-11.42 88.79-11.42 88.79s-5.69 25.16-6.89 26.06-8.68 6-8.68 6-.3 11.69-2.7 15-3.3 11.69-3.3 11.69-3.89 16.77-5.09 25.16-5.39 19.77-5.39 19.77v18.28c-27.66 28.37-34.47 8.88-36.07.08a31.49 31.49 0 0 1-.48-3.68l15.58-94.66s3.29-4.5 2.69-6.89 1.2-5.4 1.2-5.4l-.05-5.39s3.65-4.79 0-7.49 0-23.07 0-23.07-4.14-11.68-2-15 0-8.69 1.49-11.69 0 0-5.39-8.09c-2.82-4.22-5.22-11.87-6.88-18.21-1.52-5.83-2.41-10.55-2.41-10.55s74-10.48 75.8-6a20.22 20.22 0 0 1-.01 5.29Z"/><path d="M512.5 93.32a42.22 42.22 0 0 0-6 10.68 28.84 28.84 0 0 1-8.77 1.35c-10.66 0-16.57-7.85-21.6-16.42-.23-.39-3.85 1.31-4.06.91.82-5.45 1.29-9.7 1.29-9.7s52.12-3.79 39.14 13.18Z" opacity=".1"/><path fill="#fabdbd" d="M526.68 75.8a29 29 0 1 1-7.84-19.79 28.95 28.95 0 0 1 7.84 19.79Z"/><path d="M523.75 304.11c-9.78 1.72-27.55 5.09-29 7.11-2 2.79-17 3.59-26 4.79-5.17.69-12.75.12-18.46-.64-1.52-5.83-2.41-10.55-2.41-10.55s74-10.48 75.8-6a20.22 20.22 0 0 1 .07 5.29Z" opacity=".1"/><path fill="#C1FE77" d="M530.08 301.23s-33.33 5.39-35.33 8.19-17 3.59-26 4.79-25.16-1.4-26.36-2.2c-7-4.67-3.6-59.51-.6-66.31s2-44.73-.8-59.91 1.4-34.15 1.4-34.15 4.19-13.38 3.4-16.18 4-8.78 4-8.78 7.39-12.19 11.18-14a5.38 5.38 0 0 0 2.86-3.43c.71-2.21.62-5 .74-7.35.2-4 4.19-4 4.19-4 11.39 1.79 38.15 18.57 38.15 18.57-1 3.79 5.39 14.58 5.39 14.58.11.17.2.35.3.54 7 13.19 12.09 53.58 12.09 53.58s.35 19.29.29 33.49c0 7.09-.17 12.91-.5 14.44-.58 2.72.57 15.35 1.74 27.37.8 8.31 1.62 16.32 1.87 20.56.66 10.41 1.99 20.2 1.99 20.2Z"/><path d="M500.92 246.11s-9 21.57-6.59 24.76 6.59-24.76 6.59-24.76ZM512.1 256.49s-10.18 16-6.39 19.17 6.39-19.17 6.39-19.17ZM480.25 508.84v5.39c-27.66 28.37-34.47 8.88-36.07.08 5.03 4.32 16.57 9.7 36.07-5.47Z" opacity=".1"/><path fill="#65617d" d="M480.25 509.44v5.39c-27.66 28.37-34.47 8.88-36.07.08 5.03 4.32 16.57 9.7 36.07-5.47Z"/><circle cx="476.96" cy="524.02" r=".75" fill="#fff"/><circle cx="489.23" cy="531.55" r=".75" fill="#fff"/><circle cx="484.53" cy="528.46" r=".75" fill="#fff"/><circle cx="493.03" cy="534.16" r=".75" fill="#fff"/><circle cx="481" cy="526.22" r=".75" fill="#fff"/><path d="M485.94 332.78s-7.22 18.1-15.78 18.78 15.78-18.78 15.78-18.78ZM487.14 360.35s-11.39 19.37-14.78 19.57 14.78-19.57 14.78-19.57ZM493.03 425.45s-14.12 7.39-10.9 8 10.9-8 10.9-8ZM464.97 425.45s14.19-5.79 16.68-5.79-16.68 5.79-16.68 5.79ZM542.31 401.89s9.74-2.4 10.14 0-10.14 0-10.14 0ZM551.65 413.69s-8.59.18-7.39 3 7.39-3 7.39-3ZM512.6 132.81c-7.38-2.89-20.25-8.46-26.06-14.13s-16.47-7.54-22.71-8.22c.71-2.21.62-5 .74-7.35.2-4 4.19-4 4.19-4 11.39 1.79 38.15 18.57 38.15 18.57-1 3.79 5.39 14.58 5.39 14.58.11.18.2.36.3.55Z" opacity=".1"/><path fill="#C1FE77" d="M512.6 131.61c-7.38-2.89-20.25-8.46-26.06-14.12s-16.47-7.55-22.71-8.23c.71-2.21.62-5 .74-7.35.2-4 4.19-4 4.19-4 11.39 1.79 38.15 18.57 38.15 18.57-1 3.79 5.39 14.58 5.39 14.58.11.18.2.36.3.55Z"/><path d="M526.22 260.49c-11.86-7.7-28.49-20.76-28.49-21.57 0-1-6.8-8.39-6.8-8.39l-13.38-24.31-4.19-10 12-12.58 26.17 16.77 7 12.78a48.16 48.16 0 0 1 6.49 5.53c0 7.09-.17 12.91-.5 14.44-.62 2.68.53 15.31 1.7 27.33Z" opacity=".1"/><path fill="#fabdbd" d="m473.96 193.78 3.59 12.44 14 21.91s6.79 7.39 6.79 8.39 25 20.37 35.55 25.76 24 9.82 25 13.7 7 32.84 24 23.45-4.79-30.56-4.79-30.56l-14-12.38s-29.87-23.37-32.41-31.15-12.53-14.58-12.53-14.58l-7-12.79L486 181.2Z"/><path d="M468.96 127.87s-24.36 11.19-16.77 29 24.16 50.59 24.16 50.59-1.99-11.45 2.4-12.45 33.85 3.91 33.85 3.91-8.09-13.3-6.69-20.89-10.58-56.75-36.95-50.16Z" opacity=".1"/><path d="M471.36 126.08s-24.36 11.18-16.78 28.93 24.17 50.61 24.17 50.61-2-11.44 2.4-12.44 32.15 4.19 32.15 4.19-6.39-13.58-5-21.17-10.55-56.72-36.94-50.12Z" opacity=".1"/><path fill="#C1FE77" d="M470.16 126.67s-24.36 11.19-16.77 29 24.16 50.59 24.16 50.59-2-11.44 2.4-12.44 32.15 4.19 32.15 4.19-6.39-13.58-5-21.17-10.57-56.76-36.94-50.17Z"/><path d="M518.84 56.01c-3.39 1.12-7 1.77-10 .08-2.07-1.15-3.63-3.31-6-3.76-2.13-.41-4.31.82-5.68 2.5a22.55 22.55 0 0 0-3 5.77 62.1 62.1 0 0 1-5.52 10.29c-1.34 2-3.12 4.12-5.52 4.22-3.29.15-5.51-3.48-8.69-4.36-7.77-2.17-3.28 6.39-2.14 9.62a22.59 22.59 0 0 1 1.16 9.95 5.26 5.26 0 0 1-.78.12 29 29 0 0 1 46.17-34.43Z" opacity=".1"/><path fill="#7c5c5c" d="M473.89 70.13c3.17.88 5.39 4.51 8.68 4.37 2.41-.11 4.19-2.22 5.52-4.23a61.71 61.71 0 0 0 5.52-10.26 22.55 22.55 0 0 1 3-5.77c1.38-1.68 3.55-2.91 5.68-2.5 2.32.45 3.88 2.61 6 3.76 3.78 2.11 8.48.58 12.52-1 2-.76 4.19-1.86 4.53-3.92.24-1.45-.59-2.91-.4-4.37s1.27-2.48 2-3.68 1.15-2.93.12-3.9c-.75-.7-1.92-.65-2.88-1-2.39-.93-3-4.14-5.13-5.58-2.3-1.55-5.37-.51-8.15-.38-4 .18-7.73-1.66-11.44-3.13s-7.94-2.6-11.61-1.06c-2.19.93-3.89 2.68-5.75 4.16a25.76 25.76 0 0 1-12.57 5.3c-2.26.3-4.73.35-6.51 1.76-2.24 1.78-2.58 5.06-2.15 7.89s1.43 5.61 1.2 8.45c-.36 4.51-3.73 8.22-4.85 12.6a4.85 4.85 0 0 0 .49 4.25 8.9 8.9 0 0 0 2.27 1.64 8.74 8.74 0 0 1 3.91 6.3c.15 1.29 0 2.6.2 3.88a7.65 7.65 0 0 0 8.85 6 22.73 22.73 0 0 0-1.16-9.95c-1.18-3.24-5.66-11.75 2.11-9.63Z"/><g opacity=".1"><path d="M520.53 33.51a.71.71 0 0 0 .1.14ZM526.82 42.36c.76-1.19 1.16-2.94.12-3.9a2.24 2.24 0 0 0-.58-.38 4.31 4.31 0 0 1-.74 2.48c-.76 1.19-1.83 2.28-2 3.68s.63 2.91.4 4.36c-.34 2.07-2.58 3.16-4.53 3.92-4 1.57-8.74 3.11-12.53 1-2.06-1.16-3.62-3.31-5.94-3.76-2.13-.41-4.31.82-5.68 2.5a22.39 22.39 0 0 0-3 5.77 62.85 62.85 0 0 1-5.52 10.29c-1.34 2-3.11 4.12-5.52 4.22-3.29.14-5.51-3.48-8.69-4.36-7.77-2.17-3.28 6.39-2.14 9.62a22.72 22.72 0 0 1 1.16 10 7.6 7.6 0 0 1-7.1-2.48 7.7 7.7 0 0 0 8.29 4.28 22.56 22.56 0 0 0-1.15-9.95c-1.14-3.23-5.63-11.79 2.14-9.63 3.18.89 5.4 4.51 8.69 4.37 2.4-.1 4.18-2.22 5.51-4.22a62.59 62.59 0 0 0 5.53-10.3 22.55 22.55 0 0 1 3-5.77 6.18 6.18 0 0 1 5.68-2.49c2.32.45 3.88 2.6 5.94 3.75 3.79 2.12 8.49.58 12.53-1 2-.76 4.19-1.85 4.52-3.92.24-1.45-.59-2.91-.39-4.36s1.24-2.53 2-3.72ZM458.67 71.53c-.55-.36-1.15-.67-1.67-1.07a3.34 3.34 0 0 0 .59 1.23 9 9 0 0 0 2.28 1.64 8.43 8.43 0 0 1 1.88 1.68 8.85 8.85 0 0 0-3.08-3.48Z"/></g><path d="M529.08 70.63s-8.15-5.72-13 .45h-2.92c-2.92-8.39-17.37-4.5-17.37-4.5l-19.7 3.22.37 1.28 19.33-1.58s.45 7.87 3.07 10.42 8.31 1.12 8.31 1.12c3.44-.44 5.09-5.84 5.7-8.5l2.82.16c-.51 2.71-.85 8 3.76 9.84 6.3 2.47 8.3-3.15 8.3-3.15s2.08-7.26 1.33-8.76Z" opacity=".1"/><path fill="#3f3d56" d="M529.08 70.01s-8.15-5.72-13 .45h-2.92c-2.92-8.39-17.37-4.5-17.37-4.5l-19.7 3.23.37 1.27 19.33-1.57s.45 7.86 3.07 10.41 8.31 1.12 8.31 1.12c3.44-.44 5.09-5.84 5.7-8.5l2.82.16c-.51 2.71-.85 8 3.76 9.84 6.29 2.47 8.24-3.15 8.24-3.15s2.14-7.24 1.39-8.76Z"/><path fill="url(#a)" d="M652.86 650.21a6.58 6.58 0 0 0-.49-1.44c-2.49-5.55-9.81-2-14.06.74l-.56.35c-1.56 1-2.59 1.86-2.59 1.86h-.14c-1 .31-7.33 2-12.36-1.56a46.23 46.23 0 0 0-15.74-6.54v-201c2.68.88 5.81.62 9.44-1.39a12.83 12.83 0 0 0 5.08-4.69 7.64 7.64 0 0 0 .52-1l.12.1a9.67 9.67 0 0 1 3.54 5.68 16.29 16.29 0 0 1 2.39 1.89 2.53 2.53 0 0 0 4-.61 2.48 2.48 0 0 0 .3-1.59.88.88 0 0 0 0-.17 16.4 16.4 0 0 0-9.76-12.59c-1.86-8.83-10.94-17.69-10.94-17.69l-14-12.43s-29.94-23.47-32.48-31.3c-1.19-3.65-4-7.07-6.66-9.69 0-13.83-.28-30.64-.28-30.64s-5.14-40.6-12.19-53.85c-.1-.19-.19-.37-.3-.54 0 0-5-8.49-5.47-13.09 0-.13 0-.24.07-.36l-.1-.05a4.52 4.52 0 0 1 .1-1.15l-2.73-1.67h-.07a37.53 37.53 0 0 1 1.61-8.56c.06-.21.14-.43.21-.66.17-.53.37-1.06.57-1.61.08-.23.18-.46.27-.7.31-.09.62-.2.92-.32a29.1 29.1 0 0 0 17.72-18.74c.08-.25.16-.51.23-.76.17-.6.32-1.21.45-1.82.07-.08.15-.14.22-.23a6.42 6.42 0 0 0 1.46-2.2.1.1 0 0 1 0-.05c.11-.4.9-3.22 1.29-5.59s0-.05 0-.07a11 11 0 0 0 .18-2.29 2.89 2.89 0 0 0-.15-1.37 15.83 15.83 0 0 0-3.38-1.71 28.87 28.87 0 0 0-5.92-11.32.74.74 0 0 0-.12-.13c-.26-.33-.55-.64-.84-.95s-.39-.41-.6-.61c.86-.29 1.7-.59 2.51-.91 1.67-.64 3.54-1.54 4.27-3.08a.34.34 0 0 0 0-.08 2.93 2.93 0 0 0 .23-.78 8.93 8.93 0 0 0-.33-2.93 2.13 2.13 0 0 1 0-.25 4 4 0 0 1 0-1.19c.18-1.41 1.27-2.5 2-3.69a4.64 4.64 0 0 0 .41-.8 3 3 0 0 0 0-2.7 1.86 1.86 0 0 0-.39-.54 2.56 2.56 0 0 0-.58-.39v.13c-.69-.3-1.51-.35-2.23-.63-2.39-.92-3-4.16-5.14-5.6-2.3-1.56-5.38-.51-8.16-.38-4 .18-7.76-1.66-11.46-3.14s-8-2.62-11.64-1.07c-2.2.93-3.9 2.7-5.76 4.18a25.85 25.85 0 0 1-12.6 5.32c-2.27.3-4.74.35-6.53 1.78-1.95 1.55-2.46 4.27-2.26 6.81 0 .38.06.74.11 1.1.43 2.84 1.44 5.63 1.21 8.5 0 .15 0 .31-.06.46a13.36 13.36 0 0 1-1 3.51c-1.19 2.9-3 5.63-3.83 8.69a6.34 6.34 0 0 0-.16 2.77.78.78 0 0 0 0 .14 3.3 3.3 0 0 0 .13.37l.05.14a1.76 1.76 0 0 0 .09.2 3 3 0 0 0 .4.68 8.78 8.78 0 0 0 2.28 1.64 8.84 8.84 0 0 1 3.92 6.33c.14 1.29 0 2.61.19 3.89a5.7 5.7 0 0 0 .49 1.63 7.91 7.91 0 0 0 6.72 4.54 1.58 1.58 0 0 0 .31 0 4.35 4.35 0 0 0 .51 0c-.07.42-.13.85-.2 1.29 0 .22-.07.45-.11.69v.16c-.33 2.06-.7 4.23-1.12 6.37-.65-.16-1.29-.3-1.86-.4 0 0-4 0-4.21 4-.12 2.4 0 5.16-.74 7.39a5.45 5.45 0 0 1-2.86 3.45c-3.8 1.79-11.2 14-11.2 14s-4.8 6-4 8.83a.43.43 0 0 1 0 .17 7.09 7.09 0 0 1 0 2c-.49 4.71-3.43 14.11-3.43 14.11a116.91 116.91 0 0 0-2.35 23.51 65.29 65.29 0 0 0 .95 10.79c1.68 9.11 2.7 26.36 2.61 40.23v2.26c-.13 8.36-.69 15.18-1.8 17.71-1.72 3.91-3.58 23.67-3.53 40.7 0 12.72 1.13 23.92 4.13 25.92a34.73 34.73 0 0 0 7.13 1.45h.31c.1.39.19.77.29 1.15s.13.48.19.73.2.75.3 1.14c1.65 6.12 3.94 13.16 6.59 17.16 4.87 7.32 6.56 5.6 5.75 7.39-.09.19-.2.44-.35.74a7 7 0 0 0-.58 3c0 1.76.18 3.74 0 5.55a7 7 0 0 1-.95 3.15 5.32 5.32 0 0 0-.6 2.82c0 4.71 2.65 12.18 2.65 12.18l-.11.68c-.3 1.81-1.1 7-1.4 11.9v.17c-.27 4.74-.06 9.25 1.52 10.44a3.8 3.8 0 0 1 1.57 3.83 9.06 9.06 0 0 1-1.57 3.68v.64l.05 4.78-.07.11a10.11 10.11 0 0 0-1.25 4.11 4.19 4.19 0 0 0 .11 1.18 3.09 3.09 0 0 1 0 1.29c-.4 2.44-2.72 5.61-2.72 5.61l-3.16 19.27L477 654a.62.62 0 0 0 0 .09 33.1 33.1 0 0 0 .47 3.61 1.91 1.91 0 0 0 0 .21 31.7 31.7 0 0 0 1.88 6.41s0 .09 0 .13c0 .22-.08.46-.12.7-.32 1.73-.77 3.7-1.26 4.18s-3.6 6.69-4.87 11c-.14.45-.25.89-.34 1.29a.17.17 0 0 1 0 .07 8.78 8.78 0 0 0-.19 1.1 6 6 0 0 0 0 .82 1.61 1.61 0 0 0 .14.6c1.1 2.3 3.11 7 8.21 7.22s25.51 1.11 31.92 3.51a12.35 12.35 0 0 0 2.14.55l.69.11h.09l.76.11c.34 0 .69.09 1.06.12.61.06 1.26.13 2 .17.92.07 1.91.13 2.94.17h1.43c4.32.13 9.24 0 13.84-.17a104 104 0 0 0 12-1.18 10.91 10.91 0 0 0 4.32-1.34 12.94 12.94 0 0 0 4.36-7.56 4.77 4.77 0 0 0-1.56-4.39 14.61 14.61 0 0 0-6.3-2.64 34 34 0 0 0-5.51-.67s-12-5.81-14.71-8.92c0 0-9.5-4.56-9.5-7 0-2-3.75-6.53-7.2-6.94v-16.08l.09-.24c0-.09.07-.18.1-.28s.2-.57.34-1a.75.75 0 0 0 0-.16c.08-.22.16-.47.26-.74s.17-.52.26-.8.19-.56.29-.87c.47-1.45 1-3.17 1.54-5 .12-.43.25-.87.37-1.32 0-.09.05-.19.08-.3a76.94 76.94 0 0 0 2-9.17c.69-4.87 2.28-12.56 3.51-18.18.14-.6.25-1.16.37-1.71.07-.27.12-.54.18-.81l.09-.38c.07-.33.14-.64.2-.94.38-1.7.63-2.75.63-2.75a.18.18 0 0 1 0-.05c.06-.27.1-.42.1-.42s.21-2 .73-4.52c0-.19.08-.38.13-.58a19.28 19.28 0 0 1 2.44-6.64 11.56 11.56 0 0 0 1.46-3.81c0-.13 0-.27.08-.4a1.91 1.91 0 0 1 0-.21 68 68 0 0 0 1.1-10.1v-.53s7.51-5.11 8.71-6 5.94-22 6.78-25.64l.12-.52s.2-1.36.54-3.76c0-.26.08-.52.12-.8a15 15 0 0 1 1.48 1.95v.05c2 3.14.9 4.73 1.74 5.57 1.09 1.1.19 5 0 5.62v.08a27.41 27.41 0 0 0 1.63 6.28 17.09 17.09 0 0 1 1.14 5.8l-.18.17a2.93 2.93 0 0 0-.87 1.69 2.17 2.17 0 0 0 1 1.93c2.41 1.8 2.11 15.65 2.11 15.65s.14 1 .4 2.71c.17 1.18.39 2.7.67 4.49 2.48 16.52 8.63 55.77 11.24 57.19s3.15 7.54 3.27 10v1.19l2.39 10.76a17.74 17.74 0 0 0 3.79 1.77l.21.07v14.71a10.41 10.41 0 0 0-.63 2.83s0 .09 0 .15c-.18 2.91 1 6.8 9.24 5.64l1.19-.17c1.83-.28 3.48-.58 5-.88 8.28-1.66 11.65-3.56 11.65-3.56s2-.82 4.62-1.9l.19-.07h2v-.78c2.41-.95 5.08-1.95 7.33-2.69.59-.2 1.17-.37 1.68-.52a11 11 0 0 1 2.93-.6 3.82 3.82 0 0 0 1.12-.22c.14 0 .3-.11.49-.16 7.07-2.33 32.08-15.6 29.72-25.19Zm-69-145.76a35.27 35.27 0 0 0-2.39-4.81s-12.61-38.23-12.61-40-2.1-3.21-2.1-3.21l-3.2-13.35s-1.39-9.83-2-20.26c-.25-4.27-1.07-12.32-1.87-20.67 0-.47-.08-.94-.14-1.4s-.09-1.06-.15-1.59a91.24 91.24 0 0 0 8 4.8c10.6 5.41 24 9.85 25 13.76.6 2.31 2.95 13.46 8.3 20.21-.12.36-.24.72-.34 1.1-.07.22-.12.45-.18.68h-.4v178.36c-.09-.16-.17-.32-.27-.48a11.07 11.07 0 0 0-1.2-1.78c-4.51-5.42-4.21-20.47-4.21-20.47l-3.89-33.6v-.11a3.81 3.81 0 0 0 .22-.43c.45-1 1.21-3.58-1.13-5.13s-1.76-5.2-1.38-6.68a5.85 5.85 0 0 1 .18-.66s1.45-.41 3-4.71c0-.06 0-.12.06-.19.29-.83.58-1.8.87-2.92 1.79-7.22-3.31-22.28-5.12-25.89a8.2 8.2 0 0 1-.58-5.43c.08-.38.18-.72.26-1 .18-.5.32-.79.32-.79s-2.78-2.15-3.09-3.35ZM599.13 636l.21-.09h.1l.14-.06h.13v.85l-.27-.29-.19-.19Z" transform="translate(-33.25 -142.99)"/><path fill="#3f3d56" d="M587.99 533.01c-2.89-.13-18.67 6.54-18.67 6.54s-5 2.79-17.77 4.58c-8.34 1.18-9.45-2.84-9.22-5.77a10.38 10.38 0 0 1 .63-2.81v-17.73s26-15.87 28-16.87a2 2 0 0 1 .8-.17c3.21-.13 12.41 3.14 17.38 6.65 5.49 3.89 12.48 1.51 12.48 1.51s13.56-10.93 17.13-2.93a7.48 7.48 0 0 1 .49 1.43c2.61 10.57-28.35 25.66-31.25 25.57Z"/><path d="M542.96 522.08v-4.26s26-15.87 28-16.87a2 2 0 0 1 .8-.17c1.19 1.23 2.26 2.33 2.9 3 1.89 1.9-15.36 23.54-31.7 18.3Z" opacity=".1"/><path fill="#65617d" d="m538.97 519.01-2.39-10.75s0-9.29-3.3-11.09-12.29-64.16-12.29-64.16.3-13.78-2.1-15.58 0-3.78 0-3.78a16.88 16.88 0 0 0-1.06-5.81 27.77 27.77 0 0 1-1.63-6.28s1.2-4.5 0-5.69c-.84-.84.23-2.41-1.73-5.55a22.53 22.53 0 0 0-4.56-4.94c-6.79-5.74-.09-70.76 1.75-87.47.28-2.49.45-3.9.45-3.9h16l2 7.19 3.19 13.29s2.1 1.39 2.1 3.19 12.58 39.84 12.58 39.84a34.56 34.56 0 0 1 2.4 4.79c.3 1.2 3 3.3 3 3.3a8.67 8.67 0 0 0 0 7.19c1.79 3.59 6.89 18.57 5.09 25.76s-3.9 7.79-3.9 7.79-1.79 5.32 1.2 7.3.9 5.58.9 5.58l3.9 33.56s-.3 15 4.19 20.37 5.09 18.27 5.09 18.27l-3.38 1.44-.61.27-.2.09s6.89 7.19 9 9.29-18.32 27.29-35.69 16.49Z"/><path d="M574.62 502.55c-1.81 5.42-20 25-35.65 15.27l-2.39-10.75c4.28-3.47 17.63-13.6 29.25-15.1l-.2.09.81.84-.61.27-.2.09s6.89 7.19 8.99 9.29Z" opacity=".1"/><path fill="#65617d" d="m538.97 519.01-2.39-10.75c4.28-3.47 17.63-13.6 29.25-15.1l-.2.09s6.89 7.19 9 9.29-18.29 27.27-35.66 16.47Z"/><circle cx="584.1" cy="509.68" r=".75" fill="#fff"/><circle cx="579.21" cy="508.94" r=".75" fill="#fff"/><circle cx="588.3" cy="510.43" r=".75" fill="#fff"/><circle cx="574.02" cy="508.19" r=".75" fill="#fff"/><path d="M587.99 533.01c-2.89-.13-18.67 6.54-18.67 6.54s-5 2.79-17.77 4.58c-8.34 1.18-9.45-2.84-9.22-5.77a9.74 9.74 0 0 0 6.72.48c5.69-1.49 25.37-4.64 25.37-4.64s13-4.74 13.38-7.44l30.95-20.75a7.48 7.48 0 0 1 .49 1.43c2.61 10.57-28.35 25.66-31.25 25.57Z" opacity=".1"/><path fill="#C1FE77" d="M566.2 297.87h7.19v230.97h-7.19z"/><path fill="#C1FE77" d="M572.84 300.51a9.73 9.73 0 0 1 19.21-1 16.74 16.74 0 0 1 2.38 1.89 2.55 2.55 0 0 0 4.26-2.2.88.88 0 0 1 0-.17 16.33 16.33 0 1 0-31 9.13 16.32 16.32 0 0 1 5.15-7.65ZM563.95 520.61h12.13v16.93h-12.13z"/><path fill="#fabdbd" d="M512.5 93.32a42.22 42.22 0 0 0-6 10.68c-4.76 12.56-1.19 22.68-1.19 22.68s-43.34-9.59-39.14-14.38c2.54-2.91 4.64-14.1 5.9-22.46.82-5.45 1.29-9.7 1.29-9.7s52.12-3.79 39.14 13.18Z"/><path fill="#3f3d56" d="M524.95 543.01a12.87 12.87 0 0 1-4.36 7.53c-3.3 2.79-34.75 3.79-41.14 1.4s-26.76-3.3-31.86-3.5-7.08-4.89-8.19-7.19c-.31-.66-.08-2.11.44-3.85 1.27-4.27 4.23-10.29 4.86-10.93.48-.48.94-2.44 1.25-4.16.27-1.49.45-2.8.45-2.8 13.67 9.32 31.65-6.52 31.65-6.52a3.66 3.66 0 0 1 2.2-.4c3.44.42 7.19 4.93 7.19 6.92 0 2.43 9.48 7 9.48 7 2.7 3.1 14.68 8.89 14.68 8.89s8.19.2 11.79 3.29a4.76 4.76 0 0 1 1.56 4.32Z"/><path d="M524.95 543.01a12.87 12.87 0 0 1-4.36 7.53c-3.3 2.79-34.75 3.79-41.14 1.4s-26.76-3.3-31.86-3.5-7.08-4.89-8.19-7.19c-.31-.66-.08-2.11.44-3.85a123.87 123.87 0 0 1 13.25 4.05c6.39 2.5 19.67 6.09 22 5-.04.03 31.47 8.82 49.86-3.44ZM514.47 390.35a22.53 22.53 0 0 0-4.56-4.94c-6.79-5.74-.09-70.76 1.75-87.47 7.85-.44 13.35-.29 13.82.89 1.62 4.05-8.87 76.9-11.01 91.52ZM480.25 512.63v3.38c-22 22.57-30.8 14.85-34.3 6.32.27-1.49.45-2.8.45-2.8 13.67 9.32 31.65-6.52 31.65-6.52a3.66 3.66 0 0 1 2.2-.38Z" opacity=".1"/><path fill="#65617d" d="M523.75 304.11c-1.3 20.08-11.42 88.79-11.42 88.79s-5.69 25.16-6.89 26.06-8.68 6-8.68 6-.3 11.69-2.7 15-3.3 11.69-3.3 11.69-3.89 16.77-5.09 25.16-5.39 19.77-5.39 19.77v18.28c-27.66 28.37-34.47 8.88-36.07.08a31.49 31.49 0 0 1-.48-3.68l15.58-94.66s3.29-4.5 2.69-6.89 1.2-5.4 1.2-5.4l-.05-5.39s3.65-4.79 0-7.49 0-23.07 0-23.07-4.14-11.68-2-15 0-8.69 1.49-11.69 0 0-5.39-8.09c-2.82-4.22-5.22-11.87-6.88-18.21-1.52-5.83-2.41-10.55-2.41-10.55s74-10.48 75.8-6a20.22 20.22 0 0 1-.01 5.29Z"/><path d="M512.5 93.32a42.22 42.22 0 0 0-6 10.68 28.84 28.84 0 0 1-8.77 1.35c-10.66 0-16.57-7.85-21.6-16.42-.23-.39-3.85 1.31-4.06.91.82-5.45 1.29-9.7 1.29-9.7s52.12-3.79 39.14 13.18Z" opacity=".1"/><path fill="#fabdbd" d="M526.68 75.8a29 29 0 1 1-7.84-19.79 28.95 28.95 0 0 1 7.84 19.79Z"/><path d="M523.75 304.11c-9.78 1.72-27.55 5.09-29 7.11-2 2.79-17 3.59-26 4.79-5.17.69-12.75.12-18.46-.64-1.52-5.83-2.41-10.55-2.41-10.55s74-10.48 75.8-6a20.22 20.22 0 0 1 .07 5.29Z" opacity=".1"/><path fill="#C1FE77" d="M530.08 301.23s-33.33 5.39-35.33 8.19-17 3.59-26 4.79-25.16-1.4-26.36-2.2c-7-4.67-3.6-59.51-.6-66.31s2-44.73-.8-59.91 1.4-34.15 1.4-34.15 4.19-13.38 3.4-16.18 4-8.78 4-8.78 7.39-12.19 11.18-14a5.38 5.38 0 0 0 2.86-3.43c.71-2.21.62-5 .74-7.35.2-4 4.19-4 4.19-4 11.39 1.79 38.15 18.57 38.15 18.57-1 3.79 5.39 14.58 5.39 14.58.11.17.2.35.3.54 7 13.19 12.09 53.58 12.09 53.58s.35 19.29.29 33.49c0 7.09-.17 12.91-.5 14.44-.58 2.72.57 15.35 1.74 27.37.8 8.31 1.62 16.32 1.87 20.56.66 10.41 1.99 20.2 1.99 20.2Z"/><path d="M500.92 246.11s-9 21.57-6.59 24.76 6.59-24.76 6.59-24.76ZM512.1 256.49s-10.18 16-6.39 19.17 6.39-19.17 6.39-19.17ZM480.25 508.84v5.39c-27.66 28.37-34.47 8.88-36.07.08 5.03 4.32 16.57 9.7 36.07-5.47Z" opacity=".1"/><path fill="#65617d" d="M480.25 509.44v5.39c-27.66 28.37-34.47 8.88-36.07.08 5.03 4.32 16.57 9.7 36.07-5.47Z"/><circle cx="476.96" cy="524.02" r=".75" fill="#fff"/><circle cx="489.23" cy="531.55" r=".75" fill="#fff"/><circle cx="484.53" cy="528.46" r=".75" fill="#fff"/><circle cx="493.03" cy="534.16" r=".75" fill="#fff"/><circle cx="481" cy="526.22" r=".75" fill="#fff"/><path d="M485.94 332.78s-7.22 18.1-15.78 18.78 15.78-18.78 15.78-18.78ZM487.14 360.35s-11.39 19.37-14.78 19.57 14.78-19.57 14.78-19.57ZM493.03 425.45s-14.12 7.39-10.9 8 10.9-8 10.9-8ZM464.97 425.45s14.19-5.79 16.68-5.79-16.68 5.79-16.68 5.79ZM542.31 401.89s9.74-2.4 10.14 0-10.14 0-10.14 0ZM551.65 413.69s-8.59.18-7.39 3 7.39-3 7.39-3ZM512.6 132.81c-7.38-2.89-20.25-8.46-26.06-14.13s-16.47-7.54-22.71-8.22c.71-2.21.62-5 .74-7.35.2-4 4.19-4 4.19-4 11.39 1.79 38.15 18.57 38.15 18.57-1 3.79 5.39 14.58 5.39 14.58.11.18.2.36.3.55Z" opacity=".1"/><path fill="#C1FE77" d="M512.6 131.61c-7.38-2.89-20.25-8.46-26.06-14.12s-16.47-7.55-22.71-8.23c.71-2.21.62-5 .74-7.35.2-4 4.19-4 4.19-4 11.39 1.79 38.15 18.57 38.15 18.57-1 3.79 5.39 14.58 5.39 14.58.11.18.2.36.3.55Z"/><path d="M526.22 260.49c-11.86-7.7-28.49-20.76-28.49-21.57 0-1-6.8-8.39-6.8-8.39l-13.38-24.31-4.19-10 12-12.58 26.17 16.77 7 12.78a48.16 48.16 0 0 1 6.49 5.53c0 7.09-.17 12.91-.5 14.44-.62 2.68.53 15.31 1.7 27.33Z" opacity=".1"/><path fill="#fabdbd" d="m473.96 193.78 3.59 12.44 14 21.91s6.79 7.39 6.79 8.39 25 20.37 35.55 25.76 24 9.82 25 13.7 7 32.84 24 23.45-4.79-30.56-4.79-30.56l-14-12.38s-29.87-23.37-32.41-31.15-12.53-14.58-12.53-14.58l-7-12.79L486 181.2Z"/><path d="M468.96 127.87s-24.36 11.19-16.77 29 24.16 50.59 24.16 50.59-1.99-11.45 2.4-12.45 33.85 3.91 33.85 3.91-8.09-13.3-6.69-20.89-10.58-56.75-36.95-50.16Z" opacity=".1"/><path d="M471.36 126.08s-24.36 11.18-16.78 28.93 24.17 50.61 24.17 50.61-2-11.44 2.4-12.44 32.15 4.19 32.15 4.19-6.39-13.58-5-21.17-10.55-56.72-36.94-50.12Z" opacity=".1"/><path fill="#C1FE77" d="M470.16 126.67s-24.36 11.19-16.77 29 24.16 50.59 24.16 50.59-2-11.44 2.4-12.44 32.15 4.19 32.15 4.19-6.39-13.58-5-21.17-10.57-56.76-36.94-50.17Z"/><path d="M518.84 56.01c-3.39 1.12-7 1.77-10 .08-2.07-1.15-3.63-3.31-6-3.76-2.13-.41-4.31.82-5.68 2.5a22.55 22.55 0 0 0-3 5.77 62.1 62.1 0 0 1-5.52 10.29c-1.34 2-3.12 4.12-5.52 4.22-3.29.15-5.51-3.48-8.69-4.36-7.77-2.17-3.28 6.39-2.14 9.62a22.59 22.59 0 0 1 1.16 9.95 5.26 5.26 0 0 1-.78.12 29 29 0 0 1 46.17-34.43Z" opacity=".1"/><path fill="#7c5c5c" d="M473.89 70.13c3.17.88 5.39 4.51 8.68 4.37 2.41-.11 4.19-2.22 5.52-4.23a61.71 61.71 0 0 0 5.52-10.26 22.55 22.55 0 0 1 3-5.77c1.38-1.68 3.55-2.91 5.68-2.5 2.32.45 3.88 2.61 6 3.76 3.78 2.11 8.48.58 12.52-1 2-.76 4.19-1.86 4.53-3.92.24-1.45-.59-2.91-.4-4.37s1.27-2.48 2-3.68 1.15-2.93.12-3.9c-.75-.7-1.92-.65-2.88-1-2.39-.93-3-4.14-5.13-5.58-2.3-1.55-5.37-.51-8.15-.38-4 .18-7.73-1.66-11.44-3.13s-7.94-2.6-11.61-1.06c-2.19.93-3.89 2.68-5.75 4.16a25.76 25.76 0 0 1-12.57 5.3c-2.26.3-4.73.35-6.51 1.76-2.24 1.78-2.58 5.06-2.15 7.89s1.43 5.61 1.2 8.45c-.36 4.51-3.73 8.22-4.85 12.6a4.85 4.85 0 0 0 .49 4.25 8.9 8.9 0 0 0 2.27 1.64 8.74 8.74 0 0 1 3.91 6.3c.15 1.29 0 2.6.2 3.88a7.65 7.65 0 0 0 8.85 6 22.73 22.73 0 0 0-1.16-9.95c-1.18-3.24-5.66-11.75 2.11-9.63Z"/><g opacity=".1"><path d="M520.53 33.51a.71.71 0 0 0 .1.14ZM526.82 42.36c.76-1.19 1.16-2.94.12-3.9a2.24 2.24 0 0 0-.58-.38 4.31 4.31 0 0 1-.74 2.48c-.76 1.19-1.83 2.28-2 3.68s.63 2.91.4 4.36c-.34 2.07-2.58 3.16-4.53 3.92-4 1.57-8.74 3.11-12.53 1-2.06-1.16-3.62-3.31-5.94-3.76-2.13-.41-4.31.82-5.68 2.5a22.39 22.39 0 0 0-3 5.77 62.85 62.85 0 0 1-5.52 10.29c-1.34 2-3.11 4.12-5.52 4.22-3.29.14-5.51-3.48-8.69-4.36-7.77-2.17-3.28 6.39-2.14 9.62a22.72 22.72 0 0 1 1.16 10 7.6 7.6 0 0 1-7.1-2.48 7.7 7.7 0 0 0 8.29 4.28 22.56 22.56 0 0 0-1.15-9.95c-1.14-3.23-5.63-11.79 2.14-9.63 3.18.89 5.4 4.51 8.69 4.37 2.4-.1 4.18-2.22 5.51-4.22a62.59 62.59 0 0 0 5.53-10.3 22.55 22.55 0 0 1 3-5.77 6.18 6.18 0 0 1 5.68-2.49c2.32.45 3.88 2.6 5.94 3.75 3.79 2.12 8.49.58 12.53-1 2-.76 4.19-1.85 4.52-3.92.24-1.45-.59-2.91-.39-4.36s1.24-2.53 2-3.72ZM458.67 71.53c-.55-.36-1.15-.67-1.67-1.07a3.34 3.34 0 0 0 .59 1.23 9 9 0 0 0 2.28 1.64 8.43 8.43 0 0 1 1.88 1.68 8.85 8.85 0 0 0-3.08-3.48Z"/></g><path d="M529.08 70.63s-8.15-5.72-13 .45h-2.92c-2.92-8.39-17.37-4.5-17.37-4.5l-19.7 3.22.37 1.28 19.33-1.58s.45 7.87 3.07 10.42 8.31 1.12 8.31 1.12c3.44-.44 5.09-5.84 5.7-8.5l2.82.16c-.51 2.71-.85 8 3.76 9.84 6.3 2.47 8.3-3.15 8.3-3.15s2.08-7.26 1.33-8.76Z" opacity=".1"/><path fill="#3f3d56" d="M529.08 70.01s-8.15-5.72-13 .45h-2.92c-2.92-8.39-17.37-4.5-17.37-4.5l-19.7 3.23.37 1.27 19.33-1.57s.45 7.86 3.07 10.41 8.31 1.12 8.31 1.12c3.44-.44 5.09-5.84 5.7-8.5l2.82.16c-.51 2.71-.85 8 3.76 9.84 6.29 2.47 8.24-3.15 8.24-3.15s2.14-7.24 1.39-8.76Z"/><ellipse cx="980.42" cy="415.65" fill="#C1FE77" opacity=".1" rx="16.82" ry="2.84"/><path fill="#a8a8a8" d="M969.12 402.43s9.59-.29 12.48-2.35 14.76-4.52 15.47-1.22 14.42 16.42 3.59 16.51-25.16-1.68-28.05-3.44-3.49-9.5-3.49-9.5Z"/><path d="M1000.85 414.22c-10.83.09-25.16-1.68-28-3.44-2.19-1.34-3.07-6.14-3.36-8.36h-.32s.61 7.74 3.49 9.5 17.22 3.53 28.05 3.44c3.13 0 4.21-1.14 4.15-2.78-.49 1-1.68 1.62-4.01 1.64Z" opacity=".2"/><ellipse cx="112.7" cy="440.7" fill="#C1FE77" opacity=".1" rx="30.89" ry="5.22"/><path fill="#a8a8a8" d="M91.94 416.43s17.63-.54 22.94-4.33 27.1-8.29 28.42-2.23 26.45 30.14 6.59 30.33-46.23-3.1-51.53-6.33-6.42-17.44-6.42-17.44Z"/><path d="M150.24 438.09c-19.89.16-46.22-3.1-51.52-6.33-4-2.46-5.65-11.28-6.19-15.35h-.59s1.12 14.21 6.42 17.44 31.63 6.49 51.53 6.33c5.74-.05 7.73-2.09 7.62-5.12-.76 1.85-2.99 2.95-7.27 3.03Z" opacity=".2"/></svg>