<svg xmlns="http://www.w3.org/2000/svg" width="25.62" height="22"><path d="M25.62 5.069 10.741 15.212v6.553L25.62 11.41Z" data-name="Path 10"/><path d="m9.564 14.984-9.54-3.828L0 18.415 9.564 22Z" data-name="Path 11"/><path d="m10.216 13.901 15-10.247L15.395 0 .338 9.814Zm4.474-5.377-3.925 2.687a2.089 2.089 0 0 1-1.9.252l-.837-.437c-.448-.234-.356-.714.192-1.073l3.8-2.493a2.222 2.222 0 0 1 1.774-.268l.9.34c.508.193.514.638-.004.992Zm5.074-5.3.949.248c.539.141.618.507.163.819l-3.435 2.351a2.315 2.315 0 0 1-1.841.278l-.907-.325c-.487-.175-.48-.572 0-.887l3.351-2.2a2.432 2.432 0 0 1 1.72-.284Zm-8.8 1.383 3.239-2.02a2.313 2.313 0 0 1 1.571-.275l.828.217c.469.123.5.454.06.739l-3.323 2.15a2.2 2.2 0 0 1-1.681.27l-.784-.282c-.422-.152-.379-.514.085-.799ZM4.747 8.484 8.39 6.212a2.109 2.109 0 0 1 1.624-.26l.778.294c.441.167.405.563-.093.886L6.937 9.566a1.976 1.976 0 0 1-1.73.248l-.718-.375c-.391-.201-.271-.628.253-.955Z" data-name="Path 12"/></svg>