<svg xmlns="http://www.w3.org/2000/svg" width="19.797" height="17"><g fill="#fff"><path d="m19.798 3.917-11.5 7.838v5.063l11.5-8Z" data-name="Path 10"/><path d="M7.39 11.579.019 8.621 0 14.23 7.39 17Z" data-name="Path 11"/><path d="m7.897 10.742 11.594-7.918L11.897 0 .261 7.584Zm3.457-4.155L8.321 8.663a1.614 1.614 0 0 1-1.47.194l-.647-.337c-.346-.18-.275-.551.148-.829L9.29 5.765a1.717 1.717 0 0 1 1.37-.207l.694.262c.393.15.398.493-.003.767Zm3.921-4.1.733.192c.416.109.477.392.126.633l-2.657 1.82a1.789 1.789 0 0 1-1.423.215l-.7-.251c-.376-.135-.371-.442 0-.686l2.59-1.7a1.879 1.879 0 0 1 1.328-.218Zm-6.8 1.069 2.5-1.561a1.787 1.787 0 0 1 1.22-.213l.64.167c.363.1.388.351.046.571l-2.568 1.661a1.7 1.7 0 0 1-1.3.208l-.608-.218c-.328-.111-.295-.387.063-.611Zm-4.8 3L6.49 4.8a1.63 1.63 0 0 1 1.255-.2l.6.227c.341.129.313.435-.072.684L5.356 7.392a1.527 1.527 0 0 1-1.337.192l-.554-.292c-.299-.154-.205-.484.199-.736Z" data-name="Path 12"/></g></svg>