<svg width="223" height="51" viewBox="0 0 223 51" fill="none" xmlns="http://www.w3.org/2000/svg">
<rect x="12.5471" width="12.9521" height="48.4779" rx="6.47606" transform="rotate(15 12.5471 0)" fill="#C2F970"/>
<rect x="34.4893" y="0.324219" width="12.9521" height="48.4779" rx="6.47606" transform="rotate(15 34.4893 0.324219)" fill="#C2F970"/>
<path d="M69.3906 43.598V6.5071H79.4602V35.4844H94.456V43.598H69.3906Z" fill="#111111"/>
<path d="M120.477 6.5071H130.546V30.2685C130.546 33.0938 129.87 35.5387 128.518 37.6033C127.178 39.6559 125.306 41.2436 122.903 42.3665C120.501 43.4773 117.712 44.0327 114.536 44.0327C111.337 44.0327 108.536 43.4773 106.133 42.3665C103.73 41.2436 101.859 39.6559 100.519 37.6033C99.1904 35.5387 98.5264 33.0938 98.5264 30.2685V6.5071H108.596V29.3991C108.596 30.5462 108.85 31.5724 109.357 32.478C109.864 33.3714 110.564 34.0717 111.457 34.5788C112.363 35.0859 113.389 35.3395 114.536 35.3395C115.695 35.3395 116.722 35.0859 117.615 34.5788C118.509 34.0717 119.209 33.3714 119.716 32.478C120.223 31.5724 120.477 30.5462 120.477 29.3991V6.5071Z" fill="#111111"/>
<path d="M169.96 20.4162H159.745C159.673 19.571 159.48 18.8043 159.166 18.1161C158.864 17.4279 158.441 16.8363 157.898 16.3413C157.367 15.8342 156.721 15.4478 155.96 15.1822C155.2 14.9045 154.336 14.7656 153.37 14.7656C151.68 14.7656 150.249 15.1761 149.078 15.9972C147.919 16.8182 147.038 17.9954 146.434 19.5288C145.842 21.0621 145.547 22.9034 145.547 25.0526C145.547 27.3224 145.848 29.2241 146.452 30.7575C147.068 32.2788 147.955 33.4258 149.114 34.1985C150.273 34.9592 151.668 35.3395 153.298 35.3395C154.228 35.3395 155.061 35.2248 155.797 34.9954C156.534 34.7539 157.174 34.4098 157.717 33.9631C158.26 33.5163 158.701 32.979 159.039 32.3512C159.389 31.7113 159.625 30.9929 159.745 30.196L169.96 30.2685C169.839 31.8381 169.398 33.4379 168.638 35.0678C167.877 36.6857 166.797 38.1829 165.396 39.5593C164.007 40.9237 162.287 42.0224 160.234 42.8555C158.182 43.6886 155.797 44.1051 153.081 44.1051C149.676 44.1051 146.621 43.3746 143.917 41.9137C141.224 40.4528 139.093 38.3036 137.523 35.4663C135.966 32.6289 135.187 29.1577 135.187 25.0526C135.187 20.9233 135.984 17.446 137.578 14.6207C139.172 11.7834 141.321 9.64027 144.025 8.19141C146.73 6.73047 149.748 6 153.081 6C155.423 6 157.578 6.31996 159.546 6.95987C161.514 7.59979 163.241 8.53551 164.726 9.76705C166.211 10.9865 167.406 12.4897 168.312 14.2766C169.217 16.0636 169.767 18.1101 169.96 20.4162Z" fill="#111111"/>
<path d="M184.598 6.5071V43.598H174.528V6.5071H184.598Z" fill="#111111"/>
<path d="M203.641 43.598H189.37V6.5071H203.497C207.312 6.5071 210.608 7.24965 213.385 8.73473C216.174 10.2077 218.323 12.3327 219.832 15.1097C221.354 17.8746 222.114 21.1889 222.114 25.0526C222.114 28.9162 221.36 32.2365 219.851 35.0135C218.341 37.7784 216.204 39.9034 213.439 41.3885C210.674 42.8615 207.408 43.598 203.641 43.598ZM199.44 35.0497H203.279C205.114 35.0497 206.678 34.7539 207.97 34.1623C209.274 33.5707 210.264 32.5504 210.94 31.1016C211.628 29.6527 211.972 27.6364 211.972 25.0526C211.972 22.4688 211.622 20.4524 210.922 19.0036C210.234 17.5547 209.22 16.5344 207.879 15.9428C206.551 15.3512 204.921 15.0554 202.989 15.0554H199.44V35.0497Z" fill="#111111"/>
</svg>
