<svg xmlns="http://www.w3.org/2000/svg" width="1610" height="1610" viewBox="0 0 1610 1610"><g transform="translate(-786 4537)"><circle cx="805" cy="805" r="805" transform="translate(786 -4537)" fill="#fff"/><path d="M827.69,1610c-16.984,0-34.156-.536-51.037-1.592-16.723-1.046-33.61-2.632-50.192-4.712-16.434-2.062-33.005-4.666-49.251-7.738-16.112-3.047-32.334-6.636-48.215-10.668-15.759-4-31.6-8.544-47.085-13.5-15.378-4.925-30.807-10.391-45.858-16.244-14.96-5.817-29.944-12.172-44.538-18.889-14.516-6.681-29.024-13.894-43.122-21.439-14.037-7.513-28.037-15.552-41.611-23.894-13.524-8.311-26.983-17.144-40-26.254-12.982-9.082-25.869-18.677-38.3-28.519-12.412-9.824-24.694-20.149-36.507-30.688s-23.451-21.555-34.616-32.763-22.144-22.9-32.629-34.743-20.773-24.179-30.548-36.627c-9.793-12.472-19.339-25.4-28.371-38.417H607.5c37.073,0,73.262-1.04,107.563-3.09s67.679-5.169,99.209-9.27,62.1-9.3,90.854-15.449,56.514-13.428,82.5-21.629c12.993-4.1,25.79-8.533,38.036-13.174s24.284-9.621,35.784-14.8,22.779-10.709,33.532-16.431,21.276-11.8,31.28-18.059,19.769-12.885,29.028-19.688,18.266-13.973,26.777-21.316,16.762-15.063,24.525-22.945,15.256-16.149,22.273-24.573,13.686-17.252,19.826-26.244,11.92-18.4,17.182-27.955,10.154-19.541,14.539-29.668,8.387-20.684,11.9-31.379,6.621-21.828,9.252-33.091,4.854-22.971,6.609-34.8,3.088-24.116,3.965-36.515,1.322-25.259,1.322-38.227c0-13.079-.445-26.043-1.322-38.53s-2.211-24.855-3.965-36.755-3.978-23.67-6.609-34.981-5.744-22.483-9.252-33.206-7.51-21.3-11.9-31.431-9.277-20.112-14.539-29.657-11.043-18.925-17.182-27.882-12.809-17.74-19.826-26.108-14.51-16.582-22.273-24.416-16.014-15.508-24.525-22.809-17.52-14.434-26.777-21.2-19.026-13.361-29.028-19.594-20.528-12.285-31.28-17.986-22.034-11.212-33.532-16.378-23.538-10.137-35.784-14.771-25.043-9.063-38.036-13.163c-25.986-8.2-53.743-15.479-82.5-21.629s-59.324-11.349-90.854-15.45-64.907-7.219-99.209-9.27-70.49-3.09-107.563-3.09H165.8c9.038-13.027,18.584-25.952,28.371-38.417,9.776-12.45,20.054-24.773,30.548-36.627s21.463-23.533,32.629-34.743,22.81-22.23,34.616-32.763,24.1-20.868,36.507-30.688c12.434-9.842,25.321-19.437,38.3-28.519,13.021-9.109,26.48-17.942,40-26.254,13.576-8.343,27.576-16.382,41.611-23.894,14.1-7.545,28.606-14.758,43.122-21.439,14.589-6.715,29.574-13.07,44.538-18.889C551.1,48.6,566.534,43.139,581.91,38.214c15.483-4.959,31.324-9.5,47.085-13.5,15.88-4.032,32.1-7.621,48.215-10.668,16.247-3.072,32.817-5.676,49.251-7.738,16.582-2.081,33.469-3.666,50.192-4.712C793.535.536,810.706,0,827.69,0A817.942,817.942,0,0,1,910,4.156a807,807,0,0,1,79.929,12.2c25.934,5.307,51.889,11.981,77.147,19.836,24.973,7.767,49.857,16.875,73.96,27.07,23.879,10.1,47.555,21.505,70.368,33.9,22.652,12.305,44.983,25.871,66.372,40.322,21.286,14.381,42.136,29.972,61.972,46.341,19.786,16.329,39.019,33.809,57.166,51.956s35.627,37.381,51.956,57.166c16.369,19.835,31.961,40.686,46.341,61.972,14.451,21.39,28.017,43.721,40.322,66.372,12.393,22.814,23.8,46.489,33.9,70.368,10.195,24.1,19.3,48.987,27.07,73.96,7.856,25.257,14.53,51.213,19.836,77.147a806.993,806.993,0,0,1,12.2,79.929,817.065,817.065,0,0,1,0,164.613,806.993,806.993,0,0,1-12.2,79.929c-5.307,25.934-11.981,51.89-19.836,77.147-7.768,24.974-16.875,49.857-27.07,73.96-10.1,23.879-21.505,47.555-33.9,70.368-12.3,22.651-25.871,44.982-40.322,66.373-14.382,21.287-29.973,42.137-46.341,61.971-16.328,19.786-33.809,39.019-51.956,57.166s-37.381,35.627-57.166,51.956c-19.835,16.37-40.686,31.961-61.972,46.341-21.391,14.451-43.722,28.018-66.372,40.322-22.813,12.393-46.489,23.8-70.368,33.9-24.1,10.195-48.987,19.3-73.96,27.07-25.257,7.856-51.213,14.53-77.147,19.836a806.993,806.993,0,0,1-79.929,12.2A817.938,817.938,0,0,1,827.69,1610ZM605.41,1098.959H78.05c-6.834-17.413-13.133-35.3-18.723-53.153-5.634-18-10.693-36.428-15.036-54.784H578.966c14.928,0,29.5-.422,43.314-1.254s27.254-2.1,39.95-3.762,25.005-3.774,36.586-6.271,22.758-5.45,33.222-8.779A270.372,270.372,0,0,0,761.763,959.6a218.087,218.087,0,0,0,26.1-14,183.659,183.659,0,0,0,22.472-16.643,164.7,164.7,0,0,0,18.844-19.287,139.833,139.833,0,0,0,14.9-22A146.154,146.154,0,0,0,854.726,862.9a168.6,168.6,0,0,0,6.387-27.558A209.352,209.352,0,0,0,863.241,805a212.094,212.094,0,0,0-2.129-30.557,169.221,169.221,0,0,0-6.387-27.676,145.187,145.187,0,0,0-10.645-24.8,137.559,137.559,0,0,0-14.9-21.914,164.665,164.665,0,0,0-18.844-19.168,184.337,184.337,0,0,0-22.472-16.559,219.533,219.533,0,0,0-26.1-13.948,272.618,272.618,0,0,0-29.725-11.338c-10.464-3.329-21.641-6.282-33.222-8.779s-23.89-4.606-36.586-6.271-26.137-2.93-39.95-3.762-28.386-1.254-43.314-1.254H44.291c4.4-18.6,9.532-37.262,15.252-55.473,5.678-18.079,12.082-36.179,19.033-53.8H605.41c15.59,0,30.962.379,45.688,1.127s29.218,1.886,43.077,3.382,27.473,3.393,40.466,5.637,25.73,4.9,37.856,7.892,23.9,6.364,34.985,10.021,21.8,7.7,31.851,12.025,19.71,9.043,28.718,14.03a272.571,272.571,0,0,1,25.585,16.034,241.454,241.454,0,0,1,22.584,18.122,225.249,225.249,0,0,1,19.712,20.293,220.16,220.16,0,0,1,16.839,22.464,225.636,225.636,0,0,1,24.932,51.4,251.736,251.736,0,0,1,7.832,28.853,288.694,288.694,0,0,1,4.7,30.941c1.039,10.612,1.566,21.724,1.566,33.029v40.085c0,11.3-.527,22.417-1.566,33.029a288.715,288.715,0,0,1-4.7,30.941,251.742,251.742,0,0,1-7.832,28.853,225.624,225.624,0,0,1-24.932,51.4,220.182,220.182,0,0,1-16.839,22.464,225.275,225.275,0,0,1-19.712,20.293,241.528,241.528,0,0,1-22.584,18.122,266.713,266.713,0,0,1-25.585,15.992,315.364,315.364,0,0,1-28.718,13.905c-10.046,4.266-20.763,8.242-31.851,11.817s-22.858,6.847-34.985,9.729-24.864,5.439-37.856,7.6-26.608,3.988-40.466,5.428-28.352,2.537-43.077,3.257S621,1098.959,605.41,1098.959ZM578.123,924.314H31.471c-2.9-19.486-5.1-39.355-6.56-59.054C23.437,845.342,22.69,825.067,22.69,805c0-20.159.754-40.527,2.242-60.538,1.471-19.792,3.7-39.75,6.62-59.319H578.123a332.56,332.56,0,0,1,35.745,1.83,237.969,237.969,0,0,1,31.539,5.491,172.791,172.791,0,0,1,26.914,8.948,119.1,119.1,0,0,1,21.867,12.2,93.933,93.933,0,0,1,17.031,15.592,90.328,90.328,0,0,1,12.406,19.117A97.519,97.519,0,0,1,731.2,770.9a128.023,128.023,0,0,1,2.523,25.964v16.27A128.027,128.027,0,0,1,731.2,839.1a97.506,97.506,0,0,1-7.569,22.575,90.331,90.331,0,0,1-12.406,19.117,93.933,93.933,0,0,1-17.031,15.592,116.371,116.371,0,0,1-21.867,12.135,168.333,168.333,0,0,1-26.914,8.746,246.372,246.372,0,0,1-31.539,5.287A345.211,345.211,0,0,1,578.123,924.314Z" transform="translate(763.31 -4537)" fill="#16161a"/></g></svg>